<?xml version="1.0" encoding="UTF-8" standalone="no"?>
<!-- Created with Inkscape (http://www.inkscape.org/) -->

<svg
   xmlns:dc="http://purl.org/dc/elements/1.1/"
   xmlns:cc="http://creativecommons.org/ns#"
   xmlns:rdf="http://www.w3.org/1999/02/22-rdf-syntax-ns#"
   xmlns:svg="http://www.w3.org/2000/svg"
   xmlns="http://www.w3.org/2000/svg"
   xmlns:sodipodi="http://sodipodi.sourceforge.net/DTD/sodipodi-0.dtd"
   xmlns:inkscape="http://www.inkscape.org/namespaces/inkscape"
   width="210mm"
   height="297mm"
   id="svg3152"
   version="1.1"
   inkscape:version="0.48.2 r9819"
   sodipodi:docname="Neues Dokument 12">
  <defs
     id="defs3154" />
  <sodipodi:namedview
     id="base"
     pagecolor="#ffffff"
     bordercolor="#666666"
     borderopacity="1.0"
     inkscape:pageopacity="0.0"
     inkscape:pageshadow="2"
     inkscape:zoom="0.35"
     inkscape:cx="350"
     inkscape:cy="520"
     inkscape:document-units="px"
     inkscape:current-layer="layer1"
     showgrid="false"
     inkscape:window-width="1280"
     inkscape:window-height="752"
     inkscape:window-x="0"
     inkscape:window-y="0"
     inkscape:window-maximized="1" />
  <metadata
     id="metadata3157">
    <rdf:RDF>
      <cc:Work
         rdf:about="">
        <dc:format>image/svg+xml</dc:format>
        <dc:type
           rdf:resource="http://purl.org/dc/dcmitype/StillImage" />
        <dc:title></dc:title>
      </cc:Work>
    </rdf:RDF>
  </metadata>
  <g
     inkscape:label="Ebene 1"
     inkscape:groupmode="layer"
     id="layer1">
    <path
       style="fill:#000000"
       d="m 125.2857,323.235 c -1.1,-0.50154 -5.825,-2.05559 -10.5,-3.45343 -5.5152,-1.64907 -9.68883,-3.59863 -11.88551,-5.55188 -1.86203,-1.65568 -3.756389,-3.01033 -4.209689,-3.01033 -1.06598,0 -7.54454,-7.00556 -10.49796,-11.35191 -1.43049,-2.10516 -3.41371,-3.59946 -5.26983,-3.97069 -3.84646,-0.76929 -4.60899,-3.34699 -2.60858,-8.81816 0.87663,-2.39758 2.01276,-5.70924 2.52473,-7.35924 1.29521,-4.17418 7.23845,-13.81721 8.44863,-13.70806 0.54902,0.0495 1.24532,1.12908 1.54733,2.39904 0.5215,2.1929 0.92383,2.29339 7.999999,1.99817 17.62883,-0.73548 54.19953,-0.23207 60.03681,0.82643 3.46793,0.62886 7.99937,2.00761 10.06986,3.0639 2.07049,1.05628 4.62736,1.92052 5.68193,1.92052 2.90497,0 4.62488,2.7914 4.5449,7.37632 -0.10797,6.18931 -1.65222,10.46073 -6.29308,17.40666 -4.45929,6.67418 -9.75045,11.15076 -17.08954,14.45858 -2.475,1.11552 -5.625,2.59914 -7,3.29693 -6.75136,3.42625 -21.95163,6.09503 -25.5,4.47715 z m 20.99839,-13.62555 c 3.58568,-1.43545 6.75566,-2.99214 7.0444,-3.45932 0.94648,-1.53145 -1.87868,-4.78025 -5.49561,-6.31968 -3.01029,-1.28123 -24.722,-3.45541 -27.44084,-2.74788 -0.97557,0.25388 -7.22995,-1.54106 -21.031709,-6.03587 -4.90895,-1.5987 -9.51387,-2.6809 -10.23314,-2.40489 -3.14219,1.20578 1.802,7.32203 11.646739,14.4077 10.08722,7.26019 15.5384,9.01595 28.25125,9.09938 9.34364,0.0613 11.58683,-0.26875 17.25891,-2.53944 z m 4.33845,-18.93536 c 6.96474,-0.8499 14.27266,-1.97124 16.23983,-2.49187 3.59232,-0.95074 6.75312,-4.81121 5.54273,-6.76966 -0.33907,-0.54864 -3.65465,-1.91566 -7.36795,-3.03783 -7.60916,-2.29952 -13.6809,-2.54004 -45.87003,-1.81701 -16.82005,0.37781 -21.755959,0.80396 -24.249999,2.09368 -1.72228,0.89063 -3.13142,1.82121 -3.13142,2.06796 0,1.05958 7.1246,4.03098 14.999999,6.25595 20.55501,5.80722 24.10443,6.1067 43.83684,3.69878 z M 250.27301,201.288 c -10.50145,-3.74061 -16.87263,-7.46108 -22.84235,-13.33883 -8.58533,-8.45306 -10.68755,-15.74532 -6.78029,-23.51965 1.02557,-2.04059 2.43648,-5.51016 3.13536,-7.71016 0.69887,-2.2 1.85996,-4.675 2.5802,-5.5 8.0459,-9.21623 10.4636,-11.62497 13.76282,-13.71177 2.11367,-1.33694 4.46825,-2.19088 5.23238,-1.89766 0.76414,0.29323 3.08477,-0.0631 5.15696,-0.79185 6.16522,-2.16819 20.22559,-3.87188 28.49818,-3.45313 l 7.73057,0.39131 5.01943,4.94396 5.01943,4.94396 0,9.54419 c 0,5.24931 -0.47089,11.11622 -1.04642,13.03759 -0.57554,1.92137 -1.25624,6.0569 -1.51268,9.19006 -0.5727,6.99728 -3.18091,13.2987 -7.5767,18.30522 -4.0379,4.59892 -7.19388,5.99262 -19.15772,8.46018 -5.06356,1.04436 -9.88148,2.12233 -10.70648,2.39547 -0.825,0.27315 -3.75571,-0.30685 -6.51269,-1.28889 z m 17.67219,-5.19627 c 2.89187,-0.62019 6.76828,-2.08269 8.61426,-3.25 3.48675,-2.20485 8.22624,-10.0422 8.22624,-13.60315 0,-3.46959 -4.27666,-8.7995 -9,-11.2165 -3.96549,-2.0292 -6.14523,-2.33135 -18.35098,-2.54373 -10.63295,-0.18501 -15.39575,-0.71854 -20.5,-2.2964 l -6.64902,-2.0554 -1.76697,2.17814 c -3.68631,4.54412 0.0736,16.7213 7.43637,24.08407 8.54405,8.54405 19.20603,11.44467 31.9901,8.70297 z m -1.67326,-39.00928 c 9.91049,-1.33632 19.25203,-4.50106 20.87346,-7.07155 1.58402,-2.51121 -0.94174,-6.35655 -6.19885,-9.43742 -3.86513,-2.26512 -5.69752,-2.64572 -13.07789,-2.71636 -7.33718,-0.0702 -9.59589,0.3417 -15.56167,2.83795 -7.90398,3.30725 -12.14381,5.75733 -17.0935,9.87788 -3.30707,2.7531 -4.50447,6.12345 -2.42049,6.81308 2.887,0.95536 25.67476,0.74872 33.47894,-0.30358 z M 93.785701,191.52542 c -3.73168,-0.62928 -13.83167,-4.16023 -16.32011,-5.7055 -17.7318,-11.01107 -18.86782,-12.0946 -21.26501,-20.28229 -1.16538,-3.9804 -1.25148,-5.60327 -0.3714,-7 2.70101,-4.28663 16.76368,-12.97437 24.90454,-15.38572 1.95359,-0.57866 14.04419,-1.26549 26.868009,-1.5263 l 23.31602,-0.4742 3.54275,3.54275 3.54276,3.54276 -0.36475,14.95472 -0.36475,14.95472 -4.39423,4.47739 c -2.41683,2.46257 -5.56414,4.93887 -6.99403,5.5029 -8.2982,3.27324 -23.37665,4.86976 -32.099799,3.39877 z m 18.602749,-7.78073 c 5.72274,-1.69947 9.59993,-4.83359 8.7428,-7.06723 -1.0776,-2.80818 -9.00156,-7.4581 -12.70941,-7.4581 -4.41398,0 -24.341769,-3.33124 -33.165329,-5.54411 -5.90854,-1.4818 -6.85153,-1.50374 -8.16537,-0.1899 -1.31383,1.31383 -1.31369,1.81732 0.001,4.35969 1.66943,3.22776 6.96349,7.72931 13.71756,11.66405 9.17777,5.34673 22.031409,7.07078 31.578499,4.2356 z m 13.14725,-23.18362 c 4.69861,-1.16635 1.79748,-8.34586 -4.168,-10.31465 -1.87978,-0.62038 -10.77881,-1.19198 -19.81818,-1.27295 -14.762999,-0.13225 -16.749819,0.0536 -19.835099,1.85551 -1.88579,1.10137 -3.42872,2.60684 -3.42872,3.34551 0,1.55598 10.91543,6.00794 17.5,7.13755 4.599639,0.78909 25.690669,0.25669 29.749999,-0.75097 z m 141.25,-77.30189 c -3.025,-0.33804 -6.94015,-1.38529 -8.70034,-2.32722 -1.76019,-0.94193 -3.69664,-1.7126 -4.30323,-1.7126 -2.19045,0 -16.63751,-11.49944 -22.86195,-18.19746 -5.99882,-6.45523 -6.56049,-6.81325 -9.75,-6.21489 -2.69389,0.50537 -3.38448,0.31028 -3.38448,-0.95613 0,-3.56797 3.35869,-9.76565 6.04511,-11.15485 1.53847,-0.79557 3.80247,-2.91579 5.03111,-4.71158 1.22865,-1.7958 2.92513,-3.82759 3.76997,-4.51509 2.17218,-1.76765 6.88563,-1.55163 7.95807,0.36472 0.78186,1.3971 3.92196,1.65412 23.29969,1.90709 21.87892,0.28562 41.75049,1.79892 54.15634,4.12424 6.89812,1.29296 7.76949,7.76794 1.98971,14.78521 -2.0625,2.50409 -5.47909,6.6605 -7.59242,9.23645 -6.50908,7.93397 -14.48572,12.84198 -27.15758,16.71001 -10.39449,3.17287 -11.93963,3.39522 -18.5,2.6621 z m 21,-9.32939 c 3.025,-1.22547 5.5,-2.70048 5.5,-3.27782 0,-1.76588 -4.78415,-6.78074 -9.23716,-9.68261 -3.52826,-2.29925 -5.32988,-2.75584 -10.9914,-2.78563 -3.72429,-0.0196 -9.47144,-0.68756 -12.77144,-1.48438 -3.3,-0.79681 -8.025,-1.45922 -10.5,-1.47201 -2.475,-0.0128 -7.40173,-0.90559 -10.9483,-1.98399 -3.54656,-1.0784 -6.63211,-1.77692 -6.85676,-1.55227 -0.54611,0.54611 5.44117,7.9648 9.80506,12.1492 10.98242,10.53069 32.99361,15.35857 46,10.08951 z m 6.32791,-22.81962 c 11.94472,-1.08846 21.14741,-3.91631 19.04107,-5.85103 -1.74198,-1.60005 -8.05132,-2.82771 -15.86898,-3.08776 -17.2953,-0.57531 -50.28923,-0.35706 -55.50861,0.36719 -10.7391,1.49017 -10.42317,3.61811 0.85306,5.74578 3.56525,0.67271 7.64626,1.83052 9.06891,2.5729 3.25083,1.69638 25.14167,1.82692 42.41455,0.25292 z M 77.285701,75.63709 C 60.133641,73.98218 47.257101,69.85267 39.871981,63.6385 l -3.21175,-2.70251 -3.72943,3.64168 c -4.46103,4.35608 -7.1451,4.7649 -7.1451,1.0883 0,-1.59308 2.0704,-5.14824 5.50508,-9.45298 6.3145,-7.91406 11.79674,-12.47553 13.98472,-11.63592 1.7117,0.65684 2.02126,3.2084 0.50309,4.14668 -0.55391,0.34234 -1.71593,1.99313 -2.58226,3.66844 -1.51859,2.93663 -1.4798,3.14553 1.08033,5.81773 1.46051,1.52444 4.53503,3.5464 6.83226,4.49324 2.29723,0.94683 5.02145,2.16483 6.05383,2.70667 7.13823,3.74647 22.61567,4.77112 41.267,2.73198 15.832289,-1.73093 14.855949,-1.82799 14.855949,1.47692 0,2.48169 -0.57622,3.10182 -4,4.30476 -3.96476,1.39302 -24.130479,2.47289 -31.999999,1.7136 z"
       id="path3222"
       inkscape:connector-curvature="0" />
  </g>
</svg>
