<?xml version="1.0" encoding="UTF-8" standalone="no"?>
<!-- Created with Inkscape (http://www.inkscape.org/) -->

<svg
   xmlns:dc="http://purl.org/dc/elements/1.1/"
   xmlns:cc="http://creativecommons.org/ns#"
   xmlns:rdf="http://www.w3.org/1999/02/22-rdf-syntax-ns#"
   xmlns:svg="http://www.w3.org/2000/svg"
   xmlns="http://www.w3.org/2000/svg"
   xmlns:sodipodi="http://sodipodi.sourceforge.net/DTD/sodipodi-0.dtd"
   xmlns:inkscape="http://www.inkscape.org/namespaces/inkscape"
   width="210mm"
   height="297mm"
   id="svg2"
   version="1.1"
   inkscape:version="0.48.2 r9819"
   sodipodi:docname="Neues Dokument 1">
  <defs
     id="defs4" />
  <sodipodi:namedview
     id="base"
     pagecolor="#ffffff"
     bordercolor="#666666"
     borderopacity="1.0"
     inkscape:pageopacity="0.0"
     inkscape:pageshadow="2"
     inkscape:zoom="0.35"
     inkscape:cx="350"
     inkscape:cy="291.42857"
     inkscape:document-units="px"
     inkscape:current-layer="layer1"
     showgrid="false"
     inkscape:window-width="1280"
     inkscape:window-height="752"
     inkscape:window-x="0"
     inkscape:window-y="0"
     inkscape:window-maximized="1" />
  <metadata
     id="metadata7">
    <rdf:RDF>
      <cc:Work
         rdf:about="">
        <dc:format>image/svg+xml</dc:format>
        <dc:type
           rdf:resource="http://purl.org/dc/dcmitype/StillImage" />
        <dc:title></dc:title>
      </cc:Work>
    </rdf:RDF>
  </metadata>
  <g
     inkscape:label="Ebene 1"
     inkscape:groupmode="layer"
     id="layer1">
    <path
       style="fill:#000000"
       d="m 170.01713,1430.3264 c -0.73617,-2.1904 -3.68516,-22.8295 -5.02859,-35.1937 -1.30335,-11.9951 -2.37741,-14.5563 -6.1044,-14.5563 -0.67849,0 -5.53336,-1.8736 -10.7886,-4.1635 -9.00562,-3.9241 -9.63996,-4.3984 -11.03307,-8.25 -0.81295,-2.2476 -1.99351,-11.4423 -2.62347,-20.4328 -1.10038,-15.7041 -0.70955,-25.8305 1.13,-29.2778 0.87941,-1.6481 -1.5855,-4.8759 -3.72342,-4.8759 -0.54832,0 -2.01191,-1.0804 -3.25244,-2.4009 -3.93187,-4.1852 -4.77296,-17.4684 -2.02395,-31.9639 1.19001,-6.2749 6.16025,-14.9631 9.40587,-16.4419 1.78432,-0.813 2.54341,-1.9634 2.58787,-3.9219 0.23212,-10.2238 3.14356,-27.0881 6.56041,-38.0005 1.73114,-5.5288 1.42866,-5.3359 10.37667,-6.6192 1.21999,-0.175 1.46198,-1.8372 1.29632,-8.9045 -0.11202,-4.7792 -0.65774,-10.3899 -1.21271,-12.4683 -0.55496,-2.0784 -1.31398,-10.3089 -1.68671,-18.2899 -0.76608,-16.4038 -0.78586,-16.3512 6.49722,-17.2781 5.09622,-0.6486 6.06957,-1.7781 6.09057,-7.0679 0.0131,-3.2998 -0.23748,-3.7468 -1.73469,-3.0943 -0.9625,0.4194 -6.67578,2.4499 -12.69618,4.5122 -11.24696,3.8527 -13.56658,4.0382 -22.05382,1.7636 -9.12079,-2.4444 -10.70374,-3.1307 -13.07032,-5.667 -1.36384,-1.4616 -7.67107,-13.2325 -14.01606,-26.1575 -6.344986,-12.925 -12.138396,-24.625 -12.874236,-26 -0.73585,-1.375 -2.48891,-5.9394 -3.8957,-10.1431 -1.40678,-4.2037 -3.40562,-9.1537 -4.44185,-11 -1.03623,-1.8463 -2.46237,-5.1569 -3.16921,-7.3569 -0.70683,-2.2 -2.31272,-6.25 -3.56864,-9 -1.25591,-2.75 -3.75888,-8.5903 -5.56216,-12.9785 -1.80328,-4.3881 -4.46881,-9.1131 -5.92341,-10.5 -1.52567,-1.4546 -4.05207,-6.3297 -5.97076,-11.5215 -1.82932,-4.95 -4.6044,-11.7728 -6.16684,-15.1617 -1.56245,-3.389 -2.84081,-6.8214 -2.84081,-7.6276 0,-0.80616 -0.63085,-1.98936 -1.40189,-2.62926 -0.77103,-0.6399 -1.68418,-2.2882 -2.0292,-3.6629 -0.34502,-1.3746 -2.13642,-5.7437 -3.98089,-9.7089 -1.84446,-3.96529 -6.82802,-15.97519 -11.07458,-26.68869 -4.24655,-10.7135 -8.3493,-20.37617 -9.11722,-21.47253 -0.76792,-1.09636 -1.39811,-3.13075 -1.40041,-4.52088 -0.002,-1.39012 -1.1273,-4.74126 -2.5,-7.44697 -1.3727,-2.70571 -2.49582,-5.59196 -2.49582,-6.41388 0,-0.82192 -2.025,-5.44433 -4.5,-10.27202 -3.8141397,-7.43978 -4.4991497,-9.6629 -4.4944197,-14.5861 0.008,-8.67539 1.31372,-11.93015 8.7467597,-21.80851 3.72465,-4.95 9.87685,-13.5 13.67155,-19 6.84646,-9.9232 9.44986,-13.27135 19.07612,-24.53321 7.24893,-8.48059 9.5,-11.60385 9.5,-13.18083 0,-0.76873 -2.16137,-4.74757 -4.80305,-8.84184 -2.64167,-4.09427 -6.47714,-10.51616 -8.52325,-14.27086 l -3.72021,-6.82673 3.22502,-4.07192 c 2.79151,-3.52456 5.61453,-6.36748 14.51073,-14.61293 0.99592,-0.92308 2.61869,-2.63258 3.60617,-3.79891 1.77277,-2.09386 1.72864,-2.1587 -3.5,-5.14225 -6.02123,-3.43582 -10.76515,-8.26232 -15.94294,-16.22053 -3.73443,-5.73976 -7.85247,-14.37819 -7.85247,-16.47213 0,-0.66984 -0.90389,-2.03589 -2.00864,-3.03567 -1.10474,-0.99979 -2.51781,-3.65703 -3.14013,-5.90499 -0.62233,-2.24797 -2.18137,-7.11806 -3.46454,-10.82244 -3.39488,-9.80066 -3.8101,-32.11215 -0.78654,-42.26477 3.82301,-12.83709 11.9425,-24.11357 20.56706,-28.56388 4.48723,-2.31543 16.86278,-4.3462 21.74399,-3.5681 2.05777,0.32803 5.29525,-0.0363 7.5888,-0.85407 2.2,-0.78439 6.0475,-1.44592 8.55,-1.47006 2.5025,-0.0241 4.9775,-0.45597 5.5,-0.95964 1.19613,-1.153 8.76773,-1.83835 33.815026,-3.06078 10.92577,-0.53323 20.37577,-1.38185 21,-1.88582 0.62423,-0.50397 5.40997,-1.22837 10.63497,-1.60978 5.225,-0.3814 12.65,-1.15783 16.5,-1.72537 3.85,-0.56755 12.02439,-1.15517 18.1653,-1.30584 6.14092,-0.15066 11.65342,-0.5756 12.25,-0.9443 0.59659,-0.36871 1.0847,-1.97563 1.0847,-3.57091 0,-1.8443 0.95385,-3.78497 2.61944,-5.3294 2.42611,-2.2496 3.29336,-2.41084 11.75,-2.18461 13.47578,0.36054 34.58152,3.46781 39.41343,5.80261 1.92827,0.93175 3.55928,0.46806 10.5,-2.9851 9.73717,-4.84444 16.71713,-5.98429 16.71713,-2.72992 0,0.94136 -2.26916,2.52528 -5.75,4.01362 -3.1625,1.35223 -6.65,2.99215 -7.75,3.64427 -1.1,0.65213 -4.25,2.43568 -7,3.96345 -2.75,1.52778 -7.23467,4.85352 -9.96594,7.39054 -2.73127,2.53703 -6.55627,5.48148 -8.5,6.54322 -12.88286,7.03716 -30.03406,20.95793 -30.03406,24.37714 0,0.86839 1.46011,1.65922 3.75,2.03108 2.0625,0.33494 4.85622,1.06338 6.20826,1.61876 1.35204,0.55539 5.1622,1.94555 8.46703,3.08925 5.91163,2.04584 15.63333,6.89332 18.57471,9.2618 0.825,0.66431 2.175,1.45189 3,1.75016 3.49523,1.2637 16.80982,13.77739 17.8578,16.78361 1.34194,3.84949 0.76231,5.04986 -5.28087,10.93628 -2.51731,2.45201 -4.57693,5.25296 -4.57693,6.22432 0,0.98405 1.43915,2.50401 3.25,3.43248 1.7875,0.91651 4.54759,2.74957 6.13353,4.07348 1.58594,1.32391 4.51094,3.23959 6.5,4.25706 1.98906,1.01747 7.44147,5.18749 12.11647,9.26673 4.675,4.07923 10.75,8.91972 13.5,10.75664 2.75,1.83691 8.15,6.37428 12,10.08306 12.88471,12.41203 17.88892,16.94802 18.69744,16.94802 2.85548,0 -2.63149,-16.65449 -8.73066,-26.5 -1.36287,-2.2 -3.44036,-5.79999 -4.61665,-8 -1.17628,-2.2 -3.19877,-5.39248 -4.49442,-7.09439 -1.29564,-1.70191 -2.35571,-3.45943 -2.35571,-3.90561 0,-0.44617 -1.2375,-2.39976 -2.75,-4.34132 -2.6446,-3.39481 -6.00172,-8.74243 -10.14406,-16.15868 -1.07521,-1.92499 -6.01557,-8.45 -10.97859,-14.5 -16.50603,-20.12113 -20.38416,-25.16216 -22.48911,-29.23267 -0.87906,-1.6999 -2.80205,-4.03761 -4.27332,-5.19492 -4.88799,-3.84489 -7.36492,-8.1427 -7.36492,-12.7791 0,-4.12046 0.24034,-4.4703 5.25,-7.64185 4.58034,-2.89976 12.84978,-6.84988 22,-10.50889 l 2.75,-1.09968 0,-11.82145 c 0,-6.79777 0.43889,-12.26032 1.03278,-12.85422 1.71725,-1.71725 -0.0453,-4.3339 -4.40611,-6.54117 -2.26967,-1.14882 -6.37667,-3.56033 -9.12667,-5.35889 -2.75,-1.79858 -7.93509,-4.81533 -11.52242,-6.70385 -3.58733,-1.88854 -8.39893,-4.67552 -10.69244,-6.1933 l -4.17002,-2.75959 -3.30756,2.51995 c -2.99082,2.27864 -8.6713,5.42265 -23.30756,12.90022 -2.75,1.40496 -8.375,3.10334 -12.5,3.77418 -4.125,0.67085 -8.175,1.79122 -9,2.48973 -0.91303,0.77302 -6.23269,1.54242 -13.59438,1.96619 -9.78176,0.56308 -12.79607,0.40301 -15.76406,-0.83709 -3.90634,-1.63217 -5.95212,-4.68674 -3.65234,-5.45334 0.74197,-0.24731 3.05703,-2.29931 5.14457,-4.55997 8.12295,-8.79657 7.64445,-11.9638 -1.41798,-9.38576 -8.25201,2.34749 -18.2835,0.32029 -20.69289,-4.18171 -1.58473,-2.96109 -1.26087,-4.84551 2.0297,-11.81002 1.67894,-3.55349 2.82454,-6.68897 2.54577,-6.96774 -0.27877,-0.27877 -3.52479,2.21694 -7.21338,5.54602 -7.85559,7.08996 -18.11875,12.72559 -21.32285,11.70865 -3.55149,-1.1272 -7.30356,-8.06666 -11.52537,-21.31619 -0.75296,-2.36306 -1.77798,-4.83806 -2.27782,-5.5 -0.49984,-0.66195 -1.45251,-3.10553 -2.11703,-5.43018 -0.66453,-2.32466 -3.36732,-7.49965 -6.00621,-11.5 -4.940026,-7.4887 -15.135726,-24.50431 -15.135726,-25.26003 0,-0.23393 -1.32789,-2.67742 -2.95087,-5.42999 -3.73238,-6.33015 -5.45535,-12.33868 -5.18753,-18.09063 0.16156,-3.4699 -0.37376,-5.29835 -2.32587,-7.94428 -2.99904,-4.06497 -2.90419,-3.53711 -0.98112,-5.46018 0.9189,-0.9189 1.72014,-3.91276 1.95943,-7.32143 0.3967,-5.65097 1.57978,-12.91719 3.03614,-18.6472 0.56639,-2.22845 0.41722,-2.77727 -0.65905,-2.42485 -2.04566,0.66985 -10.86795,18.79635 -10.88043,22.35523 -0.006,1.6775 -0.5034,3.5427 -1.10559,4.14489 -1.61385,1.61385 -1.32548,13.81618 0.50763,21.48109 0.87814,3.67179 1.83646,10.82969 2.1296,15.90643 0.29314,5.07675 0.74676,9.57634 1.00803,9.99909 0.89995,1.45614 -1.87477,5.9185 -3.68016,5.9185 -1.09481,0 -3.16962,-2.12738 -5.2565,-5.38969 -1.89626,-2.96433 -3.92419,-5.68417 -4.50652,-6.04405 -1.03995,-0.64273 -4.77016,-6.17215 -10.83847,-16.06625 -1.68664,-2.75 -3.37384,-6.46703 -3.74934,-8.26007 -0.37549,-1.79304 -1.36939,-4.63653 -2.20866,-6.31889 -1.47946,-2.96565 -1.71973,-4.37887 -2.68354,-15.78405 -0.24926,-2.94966 -0.94235,-5.85216 -1.54019,-6.45 -0.59785,-0.59786 -1.08699,-1.82786 -1.08699,-2.73336 0,-0.9055 -0.76147,-3.17277 -1.69215,-5.03837 -2.184,-4.3779 -2.82931,-16.57407 -1.22957,-23.23822 0.68352,-2.84738 1.33548,-6.97705 1.44879,-9.17705 0.11331,-2.2 0.96138,-7.49763 1.88459,-11.77251 0.9232,-4.27487 1.4067,-8.21237 1.07443,-8.75 -0.33227,-0.53762 -2.43593,-0.97749 -4.67481,-0.97749 -5.5358,0 -19.48512,-3.86981 -23.9819897,-6.65306 -3.75601,-2.3247 -4.25557,-3.20402 -5.35521,-9.42604 -0.51907,-2.93703 -0.16984,-4.12903 1.94668,-6.64436 1.41858,-1.68589 2.57923,-3.52773 2.57923,-4.09297 0,-1.20824 7.9271097,-8.18357 9.3002097,-8.18357 1.06663,0 15.74586,-10.88355 29.29878,-21.72285 5.00444,-4.00243 9.42803,-7.27715 9.8302,-7.27715 1.20131,0 9.63694,-7.17971 14.00142,-11.91686 2.23817,-2.42926 7.00241,-7.60427 10.5872,-11.5 3.5848,-3.89573 8.23562,-9.44564 10.33517,-12.33314 2.09955,-2.8875 4.44472,-5.25 5.21149,-5.25 0.76676,0 4.141606,-3.4845 7.499646,-7.74333 6.00063,-7.61028 6.0961,-7.82934 5.55665,-12.75 -0.5039,-4.59631 -1.04424,-33.32918 -0.74765,-39.75667 0.10608,-2.29895 0.57794,-2.75224 2.87689,-2.76365 7.28117,-0.0362 8.43697,-1.85881 6.33266,-9.98635 -0.49841,-1.925 -1.19461,-11.32612 -1.54712,-20.89138 -0.35252,-9.56526 -1.06454,-19.62506 -1.58229,-22.35512 -0.51774,-2.73006 -0.70674,-5.34334 -0.41999,-5.80732 0.28675,-0.46397 0.06,-2.77917 -0.50399,-5.14488 -2.14178,-8.98461 -2.83049,-24.01784 -1.31225,-28.64397 1.28506,-3.9156 1.25906,-4.52628 -0.26442,-6.20971 -2.48814,-2.74936 -1.19996,-6.14765 4.82855,-12.73807 2.8725,-3.14025 7.01653,-7.959537 9.20894,-10.709537 2.19242,-2.75 7.85593,-9.275 12.58559,-14.500002 4.72966,-5.225 9.90352,-11.075 11.49748,-13 5.28946,-6.388 12.32793,-12.71667 15.649,-14.07086 1.80281,-0.73511 5.4345,-3.02809 8.07042,-5.09553 5.46581,-4.287 9.49946,-5.33638 16.97,-4.41485 5.45554,0.67297 24.39513,1.83641 28.73742,1.76531 1.375,-0.0225 5.875,0.8409 10,1.9187 11.18308,2.92196 50.43811,3.8641 61.03933,1.46497 8.66547,-1.96106 10.13016,-2.80863 18.97419,-10.979764 14.94159,-13.804743 27.49394,-23.045227 35.37574,-26.042043 8.97517,-3.4125381 12.93555,-4.5459331 15.88468,-4.5459331 1.44758,0 3.71598,-0.493913 5.04089,-1.097585 3.67078,-1.672517 32.19425,1.281148 58.18517,6.0251961 8.87817,1.620507 19.93379,5.100145 22.5,7.081636 1.375,1.061703 5.03679,3.10765 8.1373,4.546549 9.05777,4.20356 13.80113,13.571849 15.79117,31.188024 0.99809,8.83534 3.56324,22.38933 5.63148,29.756182 0.77206,2.75 2.06196,8.825 2.86645,13.5 0.8045,4.674997 2.23103,10.862497 3.17007,13.749987 1.47805,4.54494 2.05626,5.25076 4.30544,5.25559 6.59576,0.0142 9.48363,1.77271 12.70946,7.73943 1.71126,3.16524 3.89557,8.45499 4.85404,11.75498 2.99222,10.30223 4.77456,15.92581 5.70491,18 0.49339,1.1 0.76941,3.06472 0.61338,4.36604 -0.24137,2.01299 0.53699,2.71098 5.2163,4.67767 3.025,1.2714 10,3.4774 15.5,4.9022 5.5,1.42483 12.025,3.29463 14.5,4.15515 2.475,0.86051 6.71219,1.96199 9.41598,2.44773 2.70378,0.48574 5.38128,1.34847 5.95,1.91719 0.56871,0.56871 1.88709,1.03402 2.92973,1.03402 1.04264,0 3.09014,0.65168 4.55,1.44819 3.24091,1.76826 13.12908,4.14814 23.02064,5.54061 4.05149,0.57034 7.76566,1.28377 8.25372,1.5854 0.48805,0.30165 3.92319,0.94457 7.63365,1.42872 8.47688,1.10609 21.57927,4.22566 26.50264,6.31003 2.19126,0.9277 4.1475,2.61907 4.69511,4.05942 0.69045,1.81601 1.47029,2.3301 2.94829,1.94359 3.22678,-0.84382 3.70347,3.65504 1.22081,11.52142 -1.8667,5.91466 -3.1213,7.7527 -10.37207,15.19558 -6.23898,6.40428 -10.13657,9.43464 -15.9985,12.43874 -4.2625,2.18444 -7.75,4.26206 -7.75,4.61695 0,0.35488 3.16122,2.76619 7.02493,5.35846 6.66502,4.47174 8.51074,6.46932 23.50666,25.4408 1.90763,2.41336 3.46841,5.13036 3.46841,6.03778 0,0.90742 1.33171,3.20786 2.95936,5.11208 1.62765,1.90423 2.97765,3.98742 3,4.62932 0.0224,0.64191 0.99958,3.34191 2.17161,6 2.8753,6.52102 5.34701,22.76894 5.1941,34.14372 -0.14713,10.94521 -1.38729,13.18919 -7.28914,13.18919 -3.29019,0 -4.36333,-0.78166 -10.77583,-7.84896 -3.91696,-4.31693 -9.40392,-9.7597 -12.19325,-12.09507 l -5.07151,-4.2461 1.88217,5.34506 c 3.82527,10.86317 6.50641,20.4542 6.8056,24.34507 0.16917,2.2 0.72789,5.21347 1.2416,6.69659 1.11414,3.21662 0.4935,23.80073 -0.85042,28.20542 -0.51989,1.70389 -1.45554,5.05453 -2.07923,7.44586 -1.35331,5.18879 -6.66611,14.15213 -8.38833,14.15213 -1.19173,0 -6.09147,6.05474 -10.10673,12.48916 -1.1,1.76273 -3.47815,4.9613 -5.28478,7.10791 -4.35389,5.17325 -4.332,5.14209 -7.66183,10.90294 -1.58953,2.75 -5.57974,7.925 -8.86714,11.5 -3.2874,3.575 -6.8561,7.9625 -7.93045,9.74999 -1.07434,1.7875 -2.32858,3.25 -2.78719,3.25 -0.45861,0 -1.14851,1.01251 -1.53312,2.25 -0.38461,1.2375 -2.16051,4.5 -3.94646,7.25 l -3.24716,5 0.8766,9 c 1.37186,14.08474 2.40984,20.27266 5.11616,30.5 1.38262,5.225 3.50276,13.775 4.71144,19 1.20867,5.225 3.27437,12.20001 4.59045,15.5 5.22182,13.09347 6.44984,26.5 2.42737,26.5 -1.78907,0 -3.43282,-1.72207 -9.96389,-10.4387 -1.925,-2.56918 -5.1875,-6.69887 -7.25,-9.17709 -2.0625,-2.47822 -3.75,-4.96266 -3.75,-5.52099 0,-0.55832 -2.02858,-3.65142 -4.50795,-6.87355 -2.47937,-3.22212 -4.85653,-6.67544 -5.28258,-7.67404 -1.58147,-3.70669 -4.74115,-8.30307 -5.70947,-8.30556 -1.33986,-0.003 -5.67035,11.26589 -5.96466,15.52198 -0.0393,0.56763 -0.67138,3.04263 -1.40475,5.5 -3.23151,10.82828 -5.48588,16.72309 -7.72083,20.18874 -2.50737,3.8881 -4.93098,9.8367 -6.42885,15.77921 -1.30107,5.16178 -4.15957,7.00305 -10.84169,6.98356 -4.07223,-0.0119 -6.6407,-0.63711 -9.24331,-2.25 -7.51333,-4.65621 -12.65136,-8.36429 -14.98262,-10.81285 -2.69971,-2.83556 -11.5168,-8.92071 -12.92567,-8.92071 -1.20902,0 -0.62157,13.55223 0.78024,18 3.68202,11.68265 3.95589,14.93583 1.43882,17.09101 -3.2173,2.75474 -3.77113,2.82453 -10.77884,1.35833 -8.23604,-1.72321 -7.42784,-1.67592 -7.42784,-0.43464 0,0.55808 1.39502,1.86306 3.10005,2.89995 1.70503,1.03689 3.93683,3.26123 4.95956,4.94298 1.77739,2.92268 2.09316,3.03518 7.14995,2.54739 2.90974,-0.28068 7.99044,-0.94437 11.29044,-1.47487 3.3,-0.53049 10.275,-1.16585 15.5,-1.41191 5.225,-0.24605 11.75,-0.67758 14.5,-0.95894 19.08703,-1.95286 29.91877,-2.59719 51.36419,-3.0554 22.71331,-0.4853 24.8477,-0.37798 31.5,1.58395 8.34548,2.46129 10.42863,4.13049 16.21744,12.99482 3.63517,5.5665 4.51762,7.95925 5.71643,15.5 2.04602,12.87 1.5408,29.15845 -1.19216,38.43518 -4.98218,16.91143 -13.0075,33.96294 -16.64094,35.35722 -0.79233,0.30405 -3.66879,0.84839 -6.39214,1.20966 -2.72335,0.36126 -5.17143,1.22986 -5.44018,1.93022 -0.91943,2.396 -9.65079,13.32254 -12.68861,15.87869 -1.66879,1.4042 -4.76425,3.07143 -6.8788,3.70496 -3.30156,0.98917 -4.46053,0.86907 -8.20493,-0.85029 -6.42417,-2.94987 -15.21641,-6.24831 -16.65531,-6.24831 -2.19947,0 1.12118,5.02765 7.94495,12.02908 6.43898,6.60662 23.47773,26.7392 25.39882,30.01064 0.57681,0.98227 5.91179,6.61961 11.8555,12.52742 12.45746,12.38221 16.86479,18.00979 16.06881,20.51773 -0.30493,0.96074 -0.0861,2.03625 0.48625,2.39 1.82039,1.12505 1.13407,3.5413 -2.20932,7.7781 -4.91385,6.22692 -29.63434,30.70885 -35.54332,35.20033 -2.86053,2.17432 -5.45482,4.75316 -5.7651,5.73077 -0.56277,1.77313 3.78904,9.1026 6.97403,11.7459 0.87141,0.72321 1.58439,1.71876 1.58439,2.21236 0,0.49357 1.10704,2.65108 2.46009,4.79447 1.35306,2.14337 2.76651,5.11789 3.14102,6.61003 0.3745,1.49215 2.35071,5.46704 4.39157,8.83309 5.57309,9.19184 15.72986,29.08278 19.46501,38.12009 2.37194,5.73899 3.51391,10.40232 4.04056,16.5 0.40378,4.675 1.30525,9.625 2.00328,11 0.69802,1.375 2.03452,6.1 2.96999,10.49999 0.93547,4.40001 2.28261,9.35 2.99364,11 0.71102,1.65001 1.59701,5.4324 1.96886,8.40539 0.37184,2.9729 1.81368,8.1479 3.20408,11.5 1.3904,3.352 2.97648,9.01956 3.52462,12.59456 0.54815,3.575 1.34497,8.75 1.77072,11.5 0.92459,5.9721 2.83371,13.5883 4.70503,18.7702 0.74884,2.0737 1.36153,4.854 1.36153,6.1786 0,1.3246 0.5625,3.003 1.25,3.7298 0.6875,0.7268 1.2983,2.7915 1.35733,4.5882 0.059,1.7968 1.59236,7.7718 3.40739,13.2779 l 3.30006,10.011 6.59261,4.3515 c 3.62593,2.3934 8.61761,5.3567 11.09261,6.5851 2.475,1.2283 5.46439,3.1159 6.64308,4.1944 1.1787,1.0786 3.54513,2.7153 5.25873,3.6372 5.65054,3.0398 16.55508,10.9166 22.68551,16.3867 3.31722,2.9599 7.57961,6.4629 9.47199,7.7845 1.89238,1.3216 5.89302,4.5633 8.89031,7.2039 2.99729,2.6405 5.96951,4.801 6.60494,4.801 1.8504,0 11.44544,10.6943 11.44544,12.7567 0,1.5272 7.28804,9.1625 11.50569,12.0539 0.55313,0.3791 2.21186,2.3092 3.68608,4.2889 1.47421,1.9797 5.02341,6.1631 7.88711,9.2964 l 5.20674,5.697 -0.65021,7.7036 c -0.54887,6.5028 -1.17745,8.4828 -4.03298,12.7035 -2.13375,3.1538 -3.64439,6.8462 -4.0913,10 -0.78864,5.5654 -1.71225,7.6824 -5.1597,11.8267 -1.29329,1.5547 -2.35143,3.6047 -2.35143,4.5555 0,0.9507 -2.41541,4.657 -5.36758,8.236 -2.95216,3.5791 -5.8647,8.0541 -6.47229,9.9446 -0.60759,1.8905 -1.82534,5.7906 -2.7061,8.6671 -3.58553,11.7097 -18.9133,19.7965 -42.16686,22.2469 -6.16706,0.6499 -12.24206,0.8552 -13.5,0.4562 -2.61596,-0.8296 -13.20232,-9.0336 -19.21981,-14.8945 -2.23705,-2.1789 -5.70794,-5.1039 -7.7131,-6.5 -5.58792,-3.8908 -10.85426,-10.7553 -10.85426,-14.1483 0,-6.4385 11.98403,-21.8902 16.97766,-21.8902 1.11229,0 2.02234,-0.3882 2.02234,-0.8627 0,-1.35 -14.12549,-14.2621 -15.20768,-13.9014 -0.99149,0.3305 -2.23176,3.5554 -8.37016,21.7641 -3.59169,10.6542 -9.25272,23.2687 -11.66812,26 -6.05786,6.8502 -7.12243,7.2983 -18.17806,7.651 -5.7663,0.1839 -11.54687,-0.07 -12.84572,-0.5635 -1.29884,-0.4938 -4.97962,-3.2906 -8.1795,-6.2151 l -5.81798,-5.3173 0.55994,-8.6428 c 0.47146,-7.277 1.03384,-9.4148 3.55864,-13.5276 1.64928,-2.6866 5.26591,-9.6097 8.03695,-15.3847 5.7772,-12.04 7.26024,-19.9168 6.02493,-32 -2.23563,-21.8677 -2.26943,-20.7604 1.03776,-34 1.71735,-6.875 4.23092,-14.5859 5.58572,-17.1353 3.61178,-6.7966 4.4351,-3.7713 -8.80809,-32.3647 -3.5663,-7.7 -6.82772,-15.125 -7.2476,-16.5 -0.41988,-1.375 -1.82488,-4.067 -3.12222,-5.9821 -1.29735,-1.9152 -2.35881,-3.9438 -2.35881,-4.508 0,-1.4226 -4.82625,-10.3794 -7.54906,-14.0099 -1.23748,-1.65 -4.59568,-7.5 -7.46266,-13 -2.86698,-5.5 -6.05511,-11.125 -7.08472,-12.5 -1.8608,-2.485 -1.87119,-2.4249 -1.73195,10.0128 0.077,6.882 -0.35473,14.082 -0.95951,16 -0.60478,1.9179 -1.58374,5.3681 -2.17547,7.6669 -0.99985,3.8844 -1.6631,4.4998 -9.38685,8.71 -4.57105,2.4917 -10.90399,5.3288 -14.0732,6.3047 l -5.7622,1.7743 0.70571,3.5157 c 1.87667,9.3489 2.02231,13.5708 0.57837,16.7656 -0.80789,1.7875 -1.9821,3.25 -2.60936,3.25 -0.62726,0 -2.23141,1.1678 -3.56479,2.5952 -1.33337,1.4273 -4.33934,3.7215 -6.67993,5.0983 -5.27916,3.1052 -5.81203,5.0578 -4.40556,16.1432 0.60453,4.7648 0.92413,12.8069 0.71021,17.8713 -0.43747,10.3566 -0.97522,9.649 8.21922,10.816 4.75152,0.6031 5.5497,1.0778 8.13778,4.8394 3.12881,4.5476 3.40995,6.1788 4.96275,28.7941 0.51576,7.5117 1.23474,14.5933 1.59774,15.737 0.61973,1.9526 0.86608,1.9934 4.03799,0.6681 3.80502,-1.5899 9.35165,-0.4936 11.90905,2.3538 1.75462,1.9536 7.58644,16.482 7.58644,18.8995 0,0.9702 0.74445,4.4459 1.65434,7.724 0.90989,3.2781 2.16358,9.3351 2.78599,13.4601 1.03506,6.8598 1.38464,7.618 4.09566,8.8828 4.27022,1.9922 6.27837,3.9543 10.02627,9.7967 4.31988,6.7339 5.73113,12.0587 5.71495,21.5632 -0.0208,12.2232 -3.04284,20.7573 -7.35041,20.7573 -5.65674,0 -5.80396,0.9853 -2.93953,19.6742 1.79336,11.7007 2.48029,28.1523 1.35715,32.503 -0.70693,2.7384 -13.05922,8.3984 -21.53323,9.8668 -9.08019,1.5734 -8.69295,0.8432 -8.72675,16.456 -0.0325,15.0015 -1.13402,29.7374 -2.336,31.25 -1.40928,1.7734 -4.41971,1.549 -5.16177,-0.3847 -0.84363,-2.1985 1.40731,-37.4193 2.52759,-39.5496 0.48716,-0.9263 0.87759,-4.3013 0.86762,-7.5 -0.0143,-4.6033 -0.6567,-6.9623 -3.08123,-11.3157 -4.85767,-8.7222 -11.44173,-26.2425 -16.72293,-44.5 -8.96522,-30.9934 -12.78251,-79.2672 -7.06204,-89.3072 1.03638,-1.8189 1.8754,-4.0689 1.86449,-5 -0.0109,-0.931 2.24685,-3.7178 5.01723,-6.1928 l 5.03707,-4.5 0.22709,-12.8348 c 0.19765,-11.1708 0.003,-12.9985 -1.50061,-14.098 -0.95023,-0.6949 -5.89768,-1.5407 -10.99432,-1.8796 -5.09665,-0.339 -11.51663,-1.2996 -14.26663,-2.1347 -2.75,-0.8351 -9.725,-2.4578 -15.5,-3.6059 -5.775,-1.1481 -13.00496,-2.9559 -16.06658,-4.0172 -3.06162,-1.0614 -6.33184,-1.9298 -7.26715,-1.9298 -3.13662,0 -20.12674,-6.1702 -23.76793,-8.6317 -3.77904,-2.5546 -5.29226,-5.9481 -6.40704,-14.3683 -1.59967,-12.0826 -0.8703,-11 -7.41089,-11 -3.20592,0 -7.74211,0.675 -10.08041,1.5 -2.3383,0.825 -6.41558,1.5 -9.06063,1.5 -2.64504,0 -5.85097,0.392 -7.12427,0.8711 -1.27331,0.479 -6.8151,1.1784 -12.3151,1.5542 -5.5,0.3757 -10.986,0.9258 -12.19111,1.2225 -2.99447,0.7372 -3.66854,4.5912 -2.74447,15.6916 0.41943,5.0383 0.85514,17.0356 0.96824,26.6606 0.11311,9.625 0.51265,19.525 0.88786,22 0.37522,2.475 0.90449,5.9625 1.17616,7.75 0.27167,1.7875 0.83921,3.25 1.26121,3.25 0.422,0 2.28594,-2.7 4.14211,-6 1.85617,-3.3 3.69755,-6 4.09196,-6 0.39442,0 2.11393,-2.475 3.82113,-5.5 2.88297,-5.1083 5.198,-6.7473 6.51669,-4.6136 0.96575,1.5626 -5.13754,13.3819 -10.81823,20.9499 -3.83906,5.1145 -5.85225,8.9001 -6.64763,12.5 -1.52961,6.923 -0.77158,21.5323 1.87642,36.1637 1.97044,10.8876 3.18048,15.5187 7.70784,29.5 0.80144,2.475 1.40352,6.3 1.33794,8.5 -0.0656,2.2 1.0552,8.275 2.49061,13.5 1.43542,5.225 3.32237,12.425 4.19324,16 0.87087,3.575 1.94326,7.1923 2.38308,8.0385 0.43982,0.8461 1.13742,3.5461 1.55023,6 0.4128,2.4538 1.80127,6.8412 3.08548,9.7497 1.28421,2.9084 2.63633,6.9584 3.00471,9 0.36838,2.0415 1.13431,4.6075 1.70207,5.7023 0.56776,1.0948 1.13918,2.8948 1.26981,4 0.13063,1.1052 1.15021,4.4845 2.26574,7.5095 5.6402,15.2947 10.74877,37.5964 9.07423,39.6141 -2.11553,2.549 -3.6121,1.4307 -6.4007,-4.7832 -3.47966,-7.7537 -9.3806,-26.0423 -10.10911,-31.3309 -0.30306,-2.2 -0.94654,-4.9 -1.42995,-6 -1.70274,-3.8745 -6.06228,-19.1032 -8.0156,-28 -1.08678,-4.95 -2.60156,-11.7 -3.36616,-15 -0.76461,-3.3 -2.14282,-10.05 -3.0627,-15 -0.91988,-4.95 -2.60071,-12.825 -3.73516,-17.5 -1.13446,-4.675 -2.65346,-10.975 -3.37557,-14 -0.7221,-3.025 -1.78937,-7.3 -2.37171,-9.5 -2.29491,-8.6699 -7.03866,-33.5594 -7.03866,-36.9303 l 0,-3.5697 -9.75,-0.011 c -5.3625,-0.01 -11.41506,-0.2863 -13.45014,-0.6228 -4.51577,-0.7466 -4.50544,-0.7787 -5.17879,16.1338 -0.45143,11.3386 -2.31504,24.0518 -4.83744,33 -1.51579,5.3773 -2.74833,13.2428 -3.68247,23.5 -0.42576,4.675 -1.52838,11.875 -2.45027,16 -0.92189,4.125 -1.85445,9.525 -2.07236,12 -0.2179,2.475 -1.07441,7.875 -1.90335,12 -0.82894,4.125 -2.04486,10.65 -2.70205,14.5 -0.65719,3.85 -2.02279,10.1714 -3.03466,14.0475 -1.01187,3.8761 -2.38373,11.3011 -3.04857,16.5 -1.34978,10.5548 -3.17803,15.9525 -5.40332,15.9525 -0.91902,0 -1.48658,0.9545 -1.48658,2.5 0,1.375 -0.4288,2.5 -0.95289,2.5 -1.04017,0 -0.54372,-6.0057 1.48791,-18 2.4162,-14.2647 10.53166,-57.525 12.02401,-64.0952 1.37189,-6.0399 2.31885,-11.5259 5.42097,-31.4048 0.6008,-3.85 1.93675,-11.95 2.96879,-18 3.12538,-18.3216 4.0348,-24.5612 5.0858,-34.8943 1.16577,-11.4613 0.88436,-12.2233 -6.52102,-17.6563 -4.72992,-3.4702 -13.02697,-10.3939 -19.50624,-16.2777 -3.1928,-2.8994 -3.31192,-3.1976 -1.38744,-3.4732 1.15787,-0.1659 4.30457,1.0573 6.99266,2.7183 8.63379,5.3346 12.49941,7.2083 14.19681,6.8814 1.24805,-0.2404 0.38413,-1.6416 -3.49066,-5.6616 -6.57669,-6.8232 -10.59445,-11.8331 -12.59832,-15.7094 -0.87368,-1.6901 -2.32009,-3.68 -3.21424,-4.4221 -0.89415,-0.7421 -2.47013,-3.0969 -3.50217,-5.233 -2.59976,-5.3809 -0.7199,-5.7872 6.07404,-1.3129 5.0739,3.3416 7.21145,5.9246 17.57852,21.242 5.19697,7.6786 7.75094,6.7734 6.21054,-2.2012 -0.56641,-3.3 -1.10571,-17.925 -1.19845,-32.5 -0.15908,-25.0003 -0.0554,-26.6675 1.83138,-29.4595 l 2,-2.9594 0.59748,4.4372 c 0.32862,2.4404 0.32862,8.0472 0,12.4594 -0.32861,4.4123 -0.28662,11.8473 0.0933,16.5223 0.37994,4.675 1.21786,15.7 1.86203,24.5 2.04823,27.9808 2.0928,28.3419 3.56827,28.9081 0.76794,0.2947 2.42221,0.1457 3.67616,-0.331 1.25394,-0.4768 5.75484,-1.1925 10.002,-1.5905 7.13993,-0.669 7.7695,-0.9124 8.35074,-3.2283 0.7215,-2.8746 -0.24842,-20.1466 -1.59646,-28.4293 -0.77911,-4.787 -1.20958,-17.1727 -0.89771,-25.829 0.0495,-1.375 -0.0894,-8.8 -0.30865,-16.5 l -0.39872,-14 -8.97423,0.1571 c -27.83286,0.4873 -37.16826,0.3419 -44.65961,-0.6954 -4.57305,-0.6332 -13.8828,-1.2479 -20.68833,-1.3658 l -12.3737,-0.2145 -4.08128,4.3544 c -2.2447,2.395 -5.60166,5.2941 -7.45991,6.4426 -2.946,1.8207 -3.86298,1.943 -7.16104,0.9548 -6.304,-1.8887 -6.66319,-1.6699 -8.05945,4.9096 -0.90372,4.2585 -1.89763,6.3721 -3.36601,7.1579 -1.146,0.6134 -2.71856,1.7501 -3.49459,2.5261 -0.77602,0.776 -2.42302,2.0741 -3.66,2.8846 -2.61223,1.7116 -19.56516,6.5288 -23.97032,6.8112 -1.65,0.1058 -4.35,0.8909 -6,1.7448 -3.43492,1.7775 -11.29052,4.1012 -20,5.9161 -3.3,0.6876 -7.125,1.797 -8.5,2.4651 -1.375,0.6682 -4.44047,1.5374 -6.81216,1.9316 -3.1377,0.5214 -4.51821,1.3026 -5.06867,2.8682 -0.8547,2.4309 -0.45208,18.5781 0.65207,26.1516 0.71915,4.9328 0.8176,5.0471 7.32305,8.5 10.75951,5.7109 14.00073,8.8195 14.63416,14.0355 1.00013,8.2356 0.725,39.3145 -0.48659,54.9645 -0.65998,8.525 -1.45236,19.1 -1.76084,23.5 -0.30847,4.4 -0.97168,8.9 -1.47379,10 -1.45786,3.1938 -3.05544,9.524 -4.038,16 -1.29252,8.519 -3.37056,16.6293 -6.918,27 -1.74278,5.0949 -2.86,10.0848 -2.57484,11.5 0.27705,1.375 0.72681,8.575 0.99946,16 0.46016,12.531 1.46092,23.3887 3.11076,33.75 0.62079,3.8987 0.49793,4.25 -1.48633,4.25 -1.18968,0 -2.3521,-0.5625 -2.58316,-1.25 z m -6.14925,-59 c 1.2449,-1.981 6.00109,-16.83 8.56809,-26.75 0.49813,-1.925 1.45867,-5.525 2.13452,-8 1.74722,-6.3984 3.66867,-18.4424 5.34443,-33.5 0.79572,-7.15 1.68963,-15.025 1.98646,-17.5 2.71787,-22.662 2.83356,-49.546 0.20968,-48.7274 -0.61108,0.1906 -2.20293,2.5698 -3.53746,5.287 -1.33452,2.7172 -3.34734,6.7404 -4.47293,8.9404 -1.12559,2.2 -2.33738,6.475 -2.69288,9.5 -0.35549,3.025 -1.18049,7.975 -1.83333,11 -1.09714,5.0837 -0.74208,22.6312 0.55051,27.2063 0.28845,1.021 -0.84478,3.1521 -2.82145,5.3061 l -3.30351,3.5998 -3.71788,-1.5561 c -2.04484,-0.8559 -5.22453,-1.5561 -7.06599,-1.5561 -3.11177,0 -3.50762,0.3849 -5.60792,5.4522 -1.51044,3.6442 -3.27315,6.0484 -5.31561,7.25 l -3.05578,1.7978 -0.36663,11 c -0.20165,6.05 0.0598,13.475 0.58101,16.5 0.52121,3.025 1.21138,8.1785 1.53372,11.4522 0.76692,7.7887 3.81643,11.9111 10.27344,13.8879 7.275,2.2273 10.94699,2.0554 12.60951,-0.5901 z m 389.45991,-13.3742 c 9.0592,-2.9408 9.71658,-3.601 11.01419,-11.0628 0.84322,-4.8489 0.92867,-10.8473 0.29639,-20.8069 -0.48862,-7.6967 -0.69165,-14.5066 -0.45118,-15.1333 0.55574,-1.4482 -2.24865,-8.2187 -4.49799,-10.8592 -2.36012,-2.7705 -6.51103,-10.3393 -7.66999,-13.9856 -0.49464,-1.5562 -0.80611,-1.6818 -1.47732,-0.5958 -0.66416,1.0747 -2.7953,1.2502 -9.72521,0.8013 -11.94214,-0.7737 -16.6163,-3.0339 -13.24543,-6.4047 1.55193,-1.552 2.27276,-17.8887 1.07346,-24.3288 -0.56332,-3.025 -1.68256,-8.9514 -2.48719,-13.1699 -1.59821,-8.3789 -7.16735,-20.1378 -9.76702,-20.6225 -2.74222,-0.5113 -4.25194,4.9743 -3.46078,12.5749 0.38458,3.6946 0.92558,13.9175 1.20223,22.7175 0.27664,8.8 0.94119,18.7 1.47677,22 0.53559,3.3 1.34831,8.5208 1.80605,11.6017 0.45774,3.0809 1.30962,7.1309 1.89307,9 0.58345,1.8691 1.55246,6.0983 2.15336,9.3983 0.6009,3.3 1.93378,7.8 2.96196,10 1.02818,2.2 2.79488,6.25 3.92601,9 1.13112,2.75 3.35848,8.15 4.94968,12 1.59121,3.85 3.64557,9.0614 4.56526,11.5809 0.91968,2.5195 2.58468,5.5604 3.69998,6.7575 2.16876,2.3279 3.30478,2.2832 11.7637,-0.4626 z M 141.49168,1309.592 c 0.58412,-1.0915 1.2749,-3.679 1.53506,-5.75 0.26017,-2.0711 1.01018,-6.5867 1.6667,-10.0348 1.1971,-6.2872 1.03248,-7.879 -2.02735,-19.6031 -0.55583,-2.1297 -1.44284,-4.3045 -1.97112,-4.8327 -1.37727,-1.3773 -5.92553,3.8461 -7.57992,8.705 -3.95753,11.6233 -4.40528,15.3965 -3.06599,25.8373 0.589,4.5917 1.19712,6.0186 2.84986,6.6866 3.78343,1.5294 7.4659,1.0972 8.59276,-1.0083 z m 20.00833,-20.4348 c 0,-5.7306 0.62653,-13.0431 1.39228,-16.25 0.76576,-3.207 2.15093,-9.4308 3.07817,-13.8308 0.92725,-4.4 3.53501,-12.2036 5.79504,-17.3413 3.13416,-7.1248 3.86448,-9.7348 3.07799,-11 -1.68683,-2.7135 -7.37386,-6.1144 -12.78065,-7.643 -9.85819,-2.7871 -10.3287,-2.8217 -11.39088,-0.837 -3.49695,6.5341 -7.65881,40.9618 -5.3416,44.1868 3.32761,4.6312 6.40129,19.9886 5.438,27.1705 -0.66661,4.9699 0.37585,5.9267 6.48165,5.9487 l 4.25,0.015 0,-10.4192 z m 407.83825,7.1141 c 1.75124,-2.1101 3.44684,-15.6526 2.85312,-22.7874 -0.52015,-6.2506 -2.93327,-12.3956 -6.2024,-15.7942 -3.02593,-3.1459 -6.22044,1.4279 -8.41084,12.0422 -0.94372,4.5731 -0.80786,6.4057 0.94133,12.6968 3.65919,13.1606 7.40606,17.9547 10.81879,13.8426 z m -18.06554,-22.143 c 0.0209,-6.1717 0.62661,-11.2381 1.74659,-14.61 1.16262,-3.5003 1.50039,-6.4946 1.04932,-9.3019 -0.36587,-2.277 -1.05953,-7.29 -1.54146,-11.14 -0.91709,-7.3262 -3.11087,-18.9187 -4.99597,-26.4001 -1.48503,-5.8936 -4.75774,-10.431 -6.8945,-9.5589 -0.90018,0.3674 -4.54922,1.7422 -8.10898,3.055 -3.55976,1.3129 -7.81607,3.7308 -9.45846,5.3732 l -2.98617,2.9862 2.54757,2.7723 c 4.69227,5.1062 6.96737,9.1888 10.03617,18.0098 2.93649,8.4406 3.05254,9.4237 3.15913,26.7625 0.0682,11.0994 0.50617,18.2817 1.14235,18.7347 0.56743,0.4041 3.0567,0.7732 5.5317,0.8203 3.5737,0.068 6.68613,0.7448 8.62032,1.8747 0.0662,0.039 0.13475,-4.1813 0.15239,-9.3778 z m 149.60452,-13.5104 c 17.28048,-5.8412 24.61688,-12.6674 24.626,-22.9136 0.003,-3.3976 -1.70152,-16.1396 -4.16743,-31.153 -0.58944,-3.5888 -1.13114,-10.1138 -1.20376,-14.5 -0.11963,-7.2251 0.0473,-7.9749 1.77522,-7.9749 1.60673,0 2.18022,1.4181 3.63967,9 5.9861,31.0981 6.78589,34.5 8.11098,34.5 0.54776,0 2.31132,-1.3154 3.91901,-2.9231 3.47912,-3.4791 3.59682,-5.4151 1.49409,-24.5769 -2.35695,-21.4786 -2.39631,-22.3567 -1.08256,-24.1533 1.13445,-1.5515 1.36544,-1.4903 2.7554,0.7299 0.83442,1.3329 2.01236,6.9768 2.61763,12.5421 1.25902,11.5761 1.97294,14.2493 3.26237,12.2151 1.11533,-1.7594 1.11501,-13.1138 -4.4e-4,-16.0367 -0.48213,-1.2634 -1.40423,-4.5237 -2.04913,-7.2451 -2.8681,-12.1032 -26.577,-40.6281 -49.39666,-59.4306 -15.48623,-12.7601 -24.07693,-18.7929 -29.56935,-20.7652 -1.86544,-0.6699 -5.25748,-3.0491 -7.53785,-5.2871 -2.28037,-2.238 -4.65706,-4.0691 -5.28155,-4.0691 -0.62448,0 -2.41101,-1.0125 -3.97005,-2.25 -1.55905,-1.2375 -3.69922,-2.7289 -4.75593,-3.3143 -2.13364,-1.182 -6.88959,-13.2337 -9.24837,-23.4357 -0.82656,-3.575 -2.3272,-9.425 -3.33475,-13 -3.43838,-12.2002 -6.89744,-26.4936 -7.50212,-31 -0.55459,-4.1331 -2.06927,-9.8296 -4.65323,-17.49996 -0.55583,-1.65 -1.8299,-7.3677 -2.83125,-12.7059 -1.00135,-5.33829 -2.12218,-10.19379 -2.49072,-10.79009 -0.36855,-0.5964 -1.49489,-5.4537 -2.50299,-10.7941 -1.0081,-5.3405 -3.93611,-15.3349 -6.50668,-22.2099 -2.57057,-6.875 -5.54894,-14.975 -6.6186,-18 -1.06967,-3.025 -2.36341,-6.4 -2.875,-7.5 -0.51158,-1.1 -1.8862,-4.925 -3.05471,-8.5 -2.71924,-8.31938 -10.15841,-23.53336 -15.37963,-31.45316 -2.23566,-3.39115 -5.18984,-8.07532 -6.56484,-10.40926 -4.78268,-8.11817 -5.90132,-9.19677 -8.82313,-8.50738 -1.47228,0.34738 -6.05187,2.53048 -10.17687,4.85134 -11.79575,6.63665 -12.15021,6.81242 -28.18807,13.97732 -3.12845,1.39763 -6.33026,2.54114 -7.11515,2.54114 -0.78488,0 -2.50025,0.8381 -3.81192,1.86244 -1.31167,1.02434 -3.39736,2.17967 -4.63486,2.56739 -3.0377,0.95174 -2.99166,5.64272 0.12462,12.69574 1.30603,2.95594 3.35578,9.42443 4.55499,14.37443 2.33203,9.62596 5.79843,18.46187 11.96541,30.5 2.11318,4.125 6.4376,12.675 9.6098,19 3.17221,6.325 6.5504,12.625 7.50708,14 0.95668,1.375 2.0493,3.9314 2.42804,5.68091 0.37874,1.74949 1.33469,3.71708 2.12434,4.37238 0.78965,0.6554 1.44312,1.924 1.45217,2.8191 0.009,0.8952 1.10251,3.4276 2.42992,5.6276 1.3274,2.2 3.77147,6.715 5.43125,10.03336 1.65978,3.3184 4.07015,7.5934 5.35637,9.5 1.28623,1.9066 2.95887,5.0416 3.717,6.9666 0.75812,1.925 1.93362,4.175 2.61223,5 0.6786,0.825 2.17949,3.1875 3.3353,5.25 1.15581,2.0625 3.07553,5.4375 4.26603,7.5 1.19051,2.0625 3.60003,6.45 5.35451,9.75 1.75447,3.3 4.49798,8.25 6.09669,11 1.59871,2.75 5.97826,11.3 9.73233,19 3.75407,7.7 8.77879,17.8718 11.16604,22.604 2.38726,4.7322 4.64193,10.2109 5.01039,12.175 0.71583,3.8156 -1.63089,16.0685 -3.94559,20.6009 -0.73592,1.4411 -1.6508,4.1951 -2.03306,6.1201 -0.38225,1.925 -1.39238,5.0359 -2.24472,6.9131 -1.25482,2.7635 -1.38957,5.047 -0.70814,12 2.07189,21.1403 -0.60915,37.4838 -8.95463,54.5869 -10.85598,22.2481 -11.20487,23.8694 -6.61707,30.75 1.74195,2.6125 3.84426,4.75 4.67181,4.75 0.82755,0 3.04749,0.7321 4.9332,1.627 4.69593,2.2283 11.37903,1.369 15.84501,-2.0373 4.69647,-3.5822 8.02042,-9.7489 9.4812,-17.5897 3.68848,-19.7982 6.14199,-28.2063 10.00312,-34.2803 3.67024,-5.7737 5.44352,-6.6154 8.34524,-3.9611 1.20952,1.1063 3.11471,2.2878 4.23376,2.6255 1.11905,0.3377 6.96905,5.3234 13,11.0793 12.66871,12.0909 19.30766,16.0975 28.93222,17.4606 10.06083,1.4247 10.38777,2.6627 1.015,3.8433 -3.19927,0.403 -5.97518,1.2088 -6.16868,1.7907 -0.37325,1.1224 9.07017,5.442 11.89713,5.442 2.85448,0 3.03247,1.9323 0.29297,3.1805 -2.16032,0.9843 -3.90088,0.809 -10.112,-1.0184 -9.00794,-2.6501 -13.46982,-5.3366 -19.1937,-11.5561 l -4.30242,-4.675 -3.87546,2.1781 c -2.93469,1.6494 -4.47476,3.5391 -6.34418,7.7845 -4.25845,9.6709 -4.25893,9.772 -0.0628,13.3764 2.06813,1.7765 5.58881,4.8603 7.82375,6.8528 2.23493,1.9926 6.31351,4.8063 9.06351,6.2527 2.75,1.4464 6.26647,3.6381 7.81437,4.8705 2.53305,2.0167 5.10306,2.6053 15.74804,3.607 0.85933,0.081 5.501,-1.1843 10.31482,-2.8115 z m -520.98846,-86.9721 c 5.43883,-1.1889 11.20052,-2.8399 12.80377,-3.669 1.60324,-0.829 5.25329,-1.7712 8.11122,-2.0938 2.85793,-0.3225 6.33851,-1.1607 7.73461,-1.8627 1.3961,-0.702 4.7711,-1.7239 7.5,-2.271 5.80974,-1.1645 17.21877,-5.7464 19.66125,-7.8959 2.4653,-2.1696 5.66611,-9.0744 5.1397,-11.0874 -0.24923,-0.9531 -2.89751,-2.7247 -5.91276,-3.9555 -6.2306,-2.5433 -7.95959,-2.0371 -10.42656,3.0527 -1.10091,2.2714 -2.69726,3.4829 -6,4.5537 -2.475,0.8024 -7.425,2.5653 -11,3.9177 -12.71242,4.809 -13.96426,5.2098 -19.20232,6.1481 -2.91372,0.522 -6.87268,1.4062 -8.79768,1.965 -1.925,0.5587 -5.075,1.4279 -7,1.9313 -1.925,0.5035 -5.16066,1.6197 -7.19036,2.4805 -3.65138,1.5485 -3.67985,1.6054 -2.69548,5.391 1.97192,7.5832 -0.059,7.1841 17.27461,3.3953 z m 341.40206,-9.752 0.29084,-7.0225 -7.29084,-0.6266 c -17.95133,-1.5426 -25.56865,-2.5794 -29.29083,-3.9871 -2.2,-0.832 -7.375,-2.2832 -11.5,-3.2247 -4.125,-0.9416 -7.9275,-2.1045 -8.45,-2.5843 -0.5225,-0.4797 -2.11485,-0.8722 -3.53856,-0.8722 -1.42371,0 -4.35385,-0.9 -6.51144,-2 -2.15759,-1.1 -4.45098,-2 -5.09643,-2 -2.08499,0 -4.83233,-5.3669 -5.37499,-10.5 l -0.52858,-5 -4.81359,0.2488 c -8.44814,0.4368 -9.06159,1.2004 -8.30005,10.3319 0.3608,4.3264 0.92431,8.5653 1.25224,9.4199 0.62665,1.633 12.38708,7.6255 18.3614,9.356 6.71026,1.9437 15.52831,4.0659 19.5,4.6931 3.82115,0.6033 6.77239,1.4236 23.29468,6.4746 4.01208,1.2265 9.71846,2.3983 12.68085,2.6041 2.96239,0.2058 7.10478,0.7759 9.20532,1.267 2.10053,0.4911 4.26915,0.792 4.81915,0.6688 0.55,-0.1233 1.13088,-3.3843 1.29083,-7.2468 z m -331.95221,-14.3174 c 5.00691,-1.65 11.0446,-3 13.41708,-3 8.17155,0 19.7443,-5.37 19.7443,-9.1618 0,-2.6113 -13.27026,-5.5456 -26.93361,-5.9555 -5.53464,-0.1661 -6.2857,0.082 -9.78069,3.2359 -2.08214,1.8787 -5.47396,4.4578 -7.53738,5.7312 -3.97598,2.4538 -5.36709,5.5487 -4.33768,9.6502 0.84859,3.381 3.95669,3.2803 15.42798,-0.5 z m 312.43875,-3.2804 c 0.27025,-0.7043 0.29236,-7.5668 0.0491,-15.25 -0.24322,-7.6833 -0.44487,-14.6446 -0.44811,-15.4696 -0.0134,-3.4025 -0.99941,-6 -2.27769,-6 -1.23806,0 -14.30173,3.9044 -25.60071,7.6513 -2.475,0.8208 -6.75,1.8884 -9.5,2.3725 -5.70601,1.0044 -12.623,3.006 -13.79056,3.9906 -0.43481,0.3667 0.36519,3.3317 1.77778,6.5888 2.18007,5.0268 3.32669,6.3484 7.58458,8.7419 7.4743,4.2015 14.69145,5.8691 32.9282,7.6084 4.125,0.3934 7.78936,0.7898 8.14301,0.8809 0.35366,0.091 0.86412,-0.4106 1.13436,-1.1148 z m -359.42634,-0.7718 c 3.92407,-0.9048 7.50185,-2.3928 22.14897,-9.2116 2.475,-1.1522 5.85,-3.0791 7.5,-4.282 1.65,-1.2029 5.25,-2.9996 8,-3.9928 2.75,-0.9932 5.57726,-2.2457 6.2828,-2.7833 0.79969,-0.6093 7.09402,-0.7182 16.71307,-0.2891 16.42019,0.7326 20.99339,1.9505 30.26132,8.0591 4.84652,3.1944 15.56437,6.5226 21.05773,6.539 3.8867,0.012 4.8136,-0.4991 9.33974,-5.1459 4.9248,-5.0561 5.01121,-5.2501 4.34149,-9.75 -0.84319,-5.6653 -1.70066,-6.755 -5.78119,-7.3469 -7.28702,-1.0569 -16.78941,-4.2195 -26.21496,-8.725 -5.5,-2.629 -12.17376,-5.7915 -14.83059,-7.0278 -2.65682,-1.2364 -5.06746,-2.8652 -5.35699,-3.6197 -0.28952,-0.7545 -1.08351,-1.3718 -1.76442,-1.3718 -2.09498,0 -4.72681,-3.7073 -4.37836,-6.1675 0.28527,-2.0141 0.87631,-2.3228 4.33036,-2.2613 2.2,0.039 6.925,0.6232 10.5,1.2979 3.575,0.6748 9.425,1.6458 13,2.158 3.575,0.5122 8.075,1.3622 10,1.8889 1.925,0.5268 5.75,1.4686 8.5,2.0929 8.33357,1.8921 15.82945,4.0355 19.09377,5.4598 4.74462,2.0703 9.9248,-1.229 13.58283,-8.6508 2.83701,-5.756 3.04017,-11.5558 0.43121,-12.3101 -0.6093,-0.1761 -6.28281,-1.5235 -12.60781,-2.9942 -6.325,-1.4707 -13.3,-3.4913 -15.5,-4.4903 -2.2,-0.9989 -6.7,-2.254 -10,-2.789 -3.3,-0.535 -9.375,-1.959 -13.5,-3.1645 -4.125,-1.2055 -10.2,-2.3715 -13.5,-2.5911 -15.7536,-1.0483 -17.7948,-1.3359 -18.61007,-2.6226 -2.07828,-3.2799 0.56609,-6.8561 5.06963,-6.8561 1.54919,0 6.65835,-1.1133 11.35369,-2.4739 11.9967,-3.4765 20.57381,-3.9986 25.95765,-1.5799 2.326,1.045 7.8291,2.588 12.2291,3.4289 4.4,0.841 11.15,2.2372 15,3.1028 3.85,0.8655 10.375,1.8188 14.5,2.1185 6.41761,0.4662 7.96516,0.2504 10.72316,-1.4948 1.90943,-1.2082 3.46252,-3.1731 3.81041,-4.8206 0.32298,-1.5295 1.01005,-3.5624 1.52683,-4.5174 0.51678,-0.9551 0.93403,-3.2051 0.92722,-5 -0.0168,-4.4398 -3.8944,-6.7742 -15.98762,-9.6252 -9.24971,-2.1806 -18.68611,-4.8895 -34,-9.7605 -13.23212,-4.2089 -14.84389,-4.1578 -33.43565,1.0594 -17.15418,4.8137 -23.77785,5.4892 -24.34659,2.4829 -0.47661,-2.5194 9.42176,-5.8466 28.28224,-9.5065 4.4,-0.8538 9.68776,-2.0433 11.75058,-2.6433 2.76801,-0.8051 4.4177,-0.7869 6.29705,0.069 1.40056,0.6382 3.67682,1.1603 5.05836,1.1603 1.38154,0 6.42286,1.2991 11.20295,2.8869 12.3427,4.0999 15.97865,4.6153 18.224,2.5833 1.0077,-0.912 1.58953,-2.2905 1.29296,-3.0633 -0.30224,-0.7876 0.82614,-2.6806 2.56744,-4.3073 2.66528,-2.4897 3.10666,-3.6044 3.10666,-7.8458 0,-8.14756 -0.25027,-8.23026 -23.01619,-7.60796 -20.78788,0.5683 -27.12972,0.6076 -44.48381,0.2754 -10.21931,-0.1956 -11.6027,0.017 -19.4921,2.99816 -4.67066,1.7649 -9.17066,3.7567 -10,4.4264 -5.16104,4.1675 -26.36713,11.4978 -29.63475,10.2439 -2.78138,-1.0673 -0.91655,-4.0587 4.10801,-6.5897 4.76804,-2.4018 9.51884,-7.7477 9.51884,-10.71136 0,-1.043 -1.37984,-0.6751 -5.243,1.39786 -4.56613,2.4503 -5.95396,4.0038 -10.75,12.0332 -6.00305,10.0503 -21.04557,26.9903 -24.81236,27.9423 -3.30603,0.8355 -6.89907,-2.8992 -7.71684,-8.021 -0.81711,-5.1179 -3.91335,-17.1682 -5.38448,-20.9561 -0.60133,-1.5483 -1.09332,-3.9861 -1.09332,-5.4173 0,-2.0809 -11.8424,-39.58344 -15.08385,-47.76754 -0.43567,-1.1 -0.99051,-3.575 -1.23297,-5.5 -0.59827,-4.7499 -4.207636,-16.85822 -6.116546,-20.51915 -0.85487,-1.63947 -1.57139,-3.65585 -1.59227,-4.48085 -0.0209,-0.825 -0.68385,-2.35326 -1.47326,-3.39614 -0.78942,-1.04287 -2.39261,-4.77285 -3.56266,-8.28883 -1.36198,-4.09277 -2.9928,-6.95977 -4.53289,-7.96888 -1.48233,-0.97096 -2.40555,-2.53841 -2.40555,-4.08388 0,-3.27962 6.79073,-12.66391 16.83301,-23.26198 10.821256,-11.42016 11.280106,-12.3425 7.575856,-15.22866 -7.030856,-5.47807 -34.398986,-32.54603 -41.656396,-41.19955 l -2.4558,-2.92821 -2.10253,2.42821 c -1.15639,1.33552 -3.36064,4.04331 -4.89833,6.01732 -8.53708,10.95944 -12.69927,15.91089 -13.37471,15.91089 -0.41689,0 -1.76294,1.6875 -2.99122,3.75 -1.22828,2.0625 -4.35879,6 -6.95669,8.75 -4.05881,4.29643 -6.27527,7.44129 -10.92422,15.5 -0.47593,0.82501 -2.43854,4.65 -4.36134,8.5 l -3.49601,7 1.4826,6.5 c 0.81544,3.57501 2.16713,8.3 3.00377,10.5 0.83664,2.20001 2.63473,6.925 3.99577,10.5 1.36103,3.57501 3.37682,9.425 4.47954,13 3.06697,9.9431 12.6295,30.8985 21.85268,47.88821 1.60879,2.9635 3.68695,7.68848 4.61812,10.49998 1.56981,4.7397 10.48027,22.77666 12.43002,25.16136 0.47199,0.5773 1.15441,3.0523 1.51649,5.5 0.36209,2.4477 2.18183,7.6777 4.04387,11.6223 1.86203,3.9445 3.38552,7.8919 3.38552,8.7719 0,0.8801 1.3899,4.6277 3.08867,8.3282 1.69877,3.7004 3.68514,8.528 4.41416,10.728 2.28096,6.8834 7.39985,18.5533 9.35839,21.335 1.03201,1.4657 2.21656,3.79 2.63233,5.165 0.41576,1.375 4.0748,9.0551 8.131186,17.067 4.05639,8.0118 7.37526,15.0126 7.37526,15.5573 0,1.1489 5.59924,12.2563 8.75904,17.3757 1.18815,1.925 4.31593,5.1624 6.95062,7.1943 5.23019,4.0335 8.97896,4.6357 17.14137,2.7535 z m 228.01414,-15.506 c 7.35084,-0.2658 18.37584,-1.1453 24.5,-1.9545 6.12416,-0.8091 12.79577,-1.4748 14.82581,-1.4792 2.03004,0 3.9691,-0.4581 4.30902,-1.0081 0.33992,-0.55 1.96382,-1 3.60868,-1 1.64485,0 4.33151,-0.6934 5.97035,-1.5409 1.63884,-0.8474 3.39898,-1.2817 3.91142,-0.965 0.51244,0.3167 4.66173,-0.3727 9.22063,-1.532 4.55891,-1.1592 9.18892,-2.2445 10.28892,-2.4116 2.22919,-0.3388 11.28439,-2.7362 28.5,-7.5454 27.05332,-7.5575 41.11009,-13.8099 43.47657,-19.3384 1.82626,-4.2663 -2.16097,-18.7388 -10.92835,-39.6667 -1.26727,-3.025 -3.5417,-10 -5.05428,-15.5 -1.51258,-5.5 -3.16018,-10.5174 -3.66132,-11.1498 -0.50115,-0.6324 -1.95265,-4.9352 -3.22556,-9.5618 -1.27292,-4.6267 -3.03691,-9.5148 -3.91999,-10.8626 -0.88308,-1.3477 -2.32299,-5.59486 -3.19979,-9.43806 -0.87681,-3.8432 -2.17263,-7.4377 -2.87961,-7.9877 -2.43707,-1.8959 -5.25104,-9.96828 -8.01769,-22.99998 -1.70175,-8.0158 -2.55275,-10.5 -3.59685,-10.5 -1.1938,0 -5.34779,-13.998 -8.45756,-28.5 -1.41528,-6.6 -3.30396,-15.31179 -4.19705,-19.35953 -0.8931,-4.04775 -1.73809,-9.67275 -1.87775,-12.5 -0.13966,-2.82726 -0.79093,-9.86547 -1.44727,-15.64047 -1.39687,-12.29084 -1.91963,-79.53491 -0.86291,-111 1.11915,-33.32446 -0.48231,-67.02721 -4.14978,-87.33211 -1.65045,-9.13767 -3.00081,-16.85107 -3.00081,-17.14092 0,-0.28984 -0.91793,-0.52698 -2.03984,-0.52698 -2.67384,0 -8.04632,2.97239 -15.46016,8.55351 -3.3,2.48423 -7.47895,5.45512 -9.28655,6.60198 -1.8076,1.14685 -3.92555,3.32088 -4.70655,4.83116 -0.86003,1.66312 -2.52457,2.96688 -4.22106,3.30618 -3.03857,0.60772 -7.74372,6.07156 -6.96839,8.09204 0.26332,0.6862 3.87575,2.23468 8.02761,3.44106 4.15187,1.20637 7.8508,2.68196 8.21985,3.27909 1.11261,1.80025 -1.43276,5.24523 -5.83331,7.89498 -4.4587,2.68476 -8.02339,5.61858 -16.40295,13.5 -2.92381,2.75 -7.36612,6.57501 -9.87179,8.5 -2.50567,1.925 -9.14601,7.82414 -14.75631,13.1092 -5.6103,5.28506 -12.61894,11.58506 -15.57475,14 -2.95581,2.41494 -7.85577,6.80823 -10.8888,9.76287 l -5.51461,5.37207 0.61588,7.98652 c 0.92607,12.00906 -1.71459,15.05573 -7.03738,8.1194 -2.59115,-3.37662 -5.10296,-7.42554 -10.14302,-16.35005 -2.05106,-3.63186 -12.36552,-15 -13.60968,-15 -0.79289,0 -6.41442,-4.59653 -16.37587,-13.38998 -6.72111,-5.93304 -7.97518,-6.87267 -18.74268,-14.04316 -3.24839,-2.16323 -6.36144,-4.29385 -6.9179,-4.7347 -2.48778,-1.97098 -14.59235,-9.83217 -15.13944,-9.83217 -0.54575,0 -4.87046,-3.36312 -9.6223,-7.48281 -0.9625,-0.83444 -1.75,-2.24226 -1.75,-3.12847 0,-1.28555 0.67601,-1.48447 3.34389,-0.98398 2.93379,0.55039 3.7616,0.18317 6.75,-2.99427 1.87336,-1.99186 4.41861,-4.55523 5.65611,-5.69636 1.2375,-1.14113 2.25,-2.52713 2.25,-3.07998 0,-1.60221 -4.20043,-5.63413 -5.8696,-5.63413 -0.83653,0 -2.67059,-1.0834 -4.07568,-2.40759 -1.4051,-1.32417 -4.80472,-3.63326 -7.55472,-5.1313 -2.75,-1.49804 -7.7,-4.21042 -11,-6.02749 -6.07852,-3.34702 -19.03798,-7.22897 -20.21239,-6.05456 -2.37194,2.37194 -3.34941,64.13937 -1.25726,79.44769 1.05569,7.72455 1.54909,9.24723 2.87216,8.86386 0.87862,-0.25459 5.64749,-1.67229 10.59749,-3.15045 9.25707,-2.76432 28.44554,-5.20232 31.35973,-3.98442 0.90215,0.37703 5.46315,0.87662 10.13557,1.11018 4.67241,0.23357 8.85577,0.78516 9.29635,1.22573 0.44057,0.44057 1.01307,4.1327 1.2722,8.2047 0.25914,4.07201 0.93162,9.87865 1.49439,12.90365 0.56278,3.025 1.62551,10.54565 2.36162,16.71253 0.8921,7.47375 2.0079,12.34731 3.34627,14.61567 1.1973,2.02928 1.81186,4.42858 1.52231,5.94326 -0.26707,1.39707 0.40657,5.17003 1.49698,8.38433 3.28744,9.69076 4.75333,22.34834 3.22172,27.81871 -2.30099,8.21831 -11.0038,20.7491 -18.07511,26.02551 -1.4742,1.1 -5.26217,3.96377 -8.41771,6.36393 -14.82775,11.27823 -28.12637,16.06456 -34.84222,12.54014 -1.74465,-0.91558 -4.9721,-2.56701 -7.1721,-3.66984 -2.2,-1.10283 -5.07319,-2.84419 -6.38486,-3.86969 -1.31167,-1.02549 -2.71478,-1.86455 -3.11801,-1.86455 -0.40323,0 -0.50608,5.14545 -0.22855,11.43434 0.39449,8.93947 0.1475,12.52605 -1.132,16.43789 -0.90012,2.75197 -1.63515,6.26902 -1.63341,7.81568 0.004,3.77091 -6.2993,26.7725 -9.81424,35.8121 -1.06931,2.75 -3.35785,8.825 -5.08566,13.49999 -3.26702,8.8397 -4.6242,12.1372 -6.36976,15.47631 -4.41867,8.45258 -9.73351,19.64128 -9.73351,20.49084 0,0.5681 0.37743,1.0328 0.83873,1.0328 2.36868,0 18.03061,-5.52326 20.4071,-7.19666 2.59144,-1.8248 4.98103,-1.9439 42.5,-2.1184 l 39.75417,-0.1849 3.71079,2.8388 c 4.37662,3.3481 4.7906,4.4094 5.21143,13.36026 0.35171,7.4808 -0.47625,10.6489 -3.67559,14.0641 -2.72485,2.9088 -1.89233,3.6124 6.75337,5.7075 8.3273,2.018 10.60211,3.3388 13.31083,7.7282 1.65982,2.6897 1.97328,4.6033 1.69261,10.3322 -0.4431,9.0442 -2.74779,14.7024 -7.53204,18.4915 -4.19838,3.3252 -2.53424,3.2453 -29.9714,1.4402 -6.19179,-0.4074 -8.04336,-0.2715 -6.81841,0.5004 2.08534,1.314 12.40411,4.4565 20.08023,6.1153 3.16899,0.6848 6.17117,1.7383 6.6715,2.3412 0.79946,0.9632 3.18847,6.8972 4.72481,11.7356 0.69093,2.176 -1.94974,7.6234 -5.66997,11.6965 -1.63777,1.7931 -3.44344,4.1304 -4.0126,5.1939 -1.70434,3.1846 -6.22221,4.9875 -10.09157,4.0273 -1.86119,-0.4619 -6.75899,-1.3833 -10.88399,-2.0476 -4.125,-0.6642 -11.775,-2.5614 -17,-4.2159 -5.225,-1.6545 -12.65,-3.2329 -16.5,-3.5076 -6.53664,-0.4662 -6.85929,-0.3955 -4.87424,1.0691 2.28469,1.6856 8.04581,3.727 15.54824,5.5092 15.95361,3.7898 27.28964,11.1119 28.47468,18.392 0.33771,2.0747 1.06878,4.0532 1.62459,4.3967 1.17254,0.7247 12.32477,2.2004 25.22673,3.3383 8.52702,0.7519 40.03617,0.4951 69.36517,-0.5654 z m 158.32228,-65.4781 c 5.48471,-1.4587 15.03893,-6.5013 17.63366,-9.3067 2.58412,-2.7939 3.54978,-14.329 1.16158,-13.8754 -1.30383,0.2476 -6.42759,2.329 -16.48269,6.6958 -1.65,0.7166 -5.5646,2.0332 -8.6991,2.9259 -3.13451,0.8926 -5.95685,2.04 -6.27186,2.5497 -0.31502,0.5097 0.33539,2.4163 1.44536,4.2369 1.10997,1.8205 2.01981,4.0076 2.02186,4.8601 0.005,2.0559 2.1399,4.1117 3.66305,3.5272 0.66858,-0.2565 3.15624,-0.9826 5.52814,-1.6135 z m -269.18745,-1.2083 c -8.91041,-3.9536 -11.14367,-4.7554 -13.24514,-4.7554 -1.29517,0 -2.78236,-0.4111 -3.30486,-0.9135 -1.60327,-1.5418 -7.45,-1.7357 -7.45,-0.2472 0,1.3347 19.05194,6.5343 25.5,6.9594 0.55,0.036 -0.125,-0.4332 -1.5,-1.0433 z m 267.60206,-20.2556 c 7.28857,-2.5468 13.625,-6.6056 16.40295,-10.5068 3.86893,-5.4334 6.24086,-13.2219 6.16418,-20.2409 -0.0796,-7.2853 -1.12398,-10.1318 -8.16447,-22.25206 -2.2364,-3.85 -4.77617,-8.56489 -5.64392,-10.47748 -0.86775,-1.91261 -2.80404,-5.28761 -4.30287,-7.5 -2.68923,-3.9695 -5.12981,-8.79491 -10.88562,-21.52251 -1.61673,-3.575 -5.19192,-11.225 -7.94489,-17 -5.39112,-11.30918 -9.01853,-21.35231 -12.76402,-35.33948 -3.07001,-11.46466 -3.57323,-12.0354 -9.92459,-11.25626 -15.24108,1.86969 -14.16921,2.29638 -17.3433,-6.90426 -3.66914,-10.63561 -7.09183,-19.72965 -7.62701,-20.26482 -1.32184,-1.32186 -1.76755,3.80094 -1.26623,14.55361 1.10609,23.72382 3.8186,43.99449 6.82594,51.01032 1.03201,2.40758 2.15079,6.25021 2.48618,8.53916 0.3354,2.28896 1.62471,6.41174 2.86514,9.16174 1.24044,2.75 3.02739,7.7 3.971,11 0.94361,3.3 2.05856,6.675 2.47766,7.5 0.41911,0.825 1.76148,4.87499 2.98305,8.99999 1.22156,4.125 4.41343,13.12499 7.09303,19.99999 5.63136,14.44826 7.7834,20.30196 9.00708,24.49996 1.96252,6.7327 6.8875,20.3592 9.32532,25.8014 l 2.59871,5.8013 3.62306,-0.6796 c 1.99268,-0.3739 6.51231,-1.6893 10.04362,-2.9233 z m -387.00835,-19.7498 c 6.0621,-6.333 11.59835,-13.2812 13.50638,-16.9509 1.88762,-3.6304 11.58103,-11.79906 14.00144,-11.79906 1.93823,0 7.59032,-3.3091 11.44392,-6.7001 1.125,-0.99 3.53047,-5.39988 5.34549,-9.79989 1.81502,-4.4 5.46593,-12.72499 8.11313,-18.5 7.98526,-17.4202 10.74557,-24.46996 11.99279,-30.62914 0.65386,-3.22897 2.04248,-9.10802 3.08582,-13.06455 2.57167,-9.75219 3.31641,-21.82949 2.07196,-33.60085 -1.09814,-10.38741 -0.55533,-9.22653 -9.38497,-20.07124 -1.50168,-1.84439 -3.70163,-5.89162 -4.88878,-8.99383 -2.22604,-5.81701 -3.51737,-6.92768 -4.52317,-3.89039 -1.47872,4.46537 -13.18107,27.14259 -15.85772,30.72963 -1.65,2.2112 -4.24388,5.93287 -5.76419,8.27037 -2.21285,3.4023 -3.34796,4.25 -5.69098,4.25 -3.26255,0 -4.84937,1.47729 -2.53909,2.36383 1.9392,0.74414 1.93507,2.63617 -0.006,2.63617 -0.825,0 -1.5,-0.34529 -1.5,-0.76731 0,-0.9071 -9.68399,-4.57936 -15.78427,-5.98555 -5.04206,-1.16225 -6.21573,0.0657 -6.21573,6.50346 0,2.13514 -0.40945,6.32723 -0.9099,9.31574 -0.50044,2.98851 -1.44466,9.03366 -2.09826,13.43366 -0.6536,4.4 -1.81914,11.24353 -2.5901,15.20784 -0.7707,3.96436 -1.40148,11.02726 -1.40148,15.69556 0,10.71011 -1.74736,32.38069 -3.19279,39.59659 -1.29128,6.4464 -1.3326,8.6041 -0.30639,15.99996 0.69813,5.0315 4.64861,18.8147 6.03595,21.0595 1.00478,1.6258 1.89735,1.0807 7.05694,-4.3095 z M 121.5163,951.07645 c 1.20334,-12.65 2.60206,-27.04999 3.10827,-32 0.50622,-4.95 1.35209,-13.725 1.87973,-19.5 0.80127,-8.76991 1.29188,-10.72605 2.97753,-11.87197 3.27758,-2.22812 2.47688,-4.85337 -2.20946,-7.24417 -2.32521,-1.18623 -5.97545,-3.31342 -8.11166,-4.7271 l -3.88401,-2.57031 -2.10574,2.95677 c -1.15815,1.62623 -4.59856,5.65679 -7.64535,8.95678 -5.963906,6.45956 -10.025596,11.86283 -10.025596,13.33706 0,0.50493 -0.675,1.47825 -1.5,2.16294 -0.825,0.6847 -1.5,2.39198 -1.5,3.79398 0,2.37365 3.23713,11.78059 6.43714,18.70602 1.804676,3.90566 3.581606,9.12666 4.594626,13.5 0.83784,3.61711 3.3439,10.9959 4.92457,14.5 0.81955,1.8168 2.72204,6.9757 6.08487,16.5 2.63752,7.4701 3.07054,8.28761 3.92086,7.4021 0.47648,-0.4961 1.85088,-11.25209 3.05422,-23.9021 z m 45.03531,-72 c 3.50553,-9.392 16.55252,-35.89444 20.43021,-41.5 3.07785,-4.44931 3.09847,-4.56195 1.83116,-10 -0.70497,-3.025 -1.5044,-7.14574 -1.77652,-9.1572 -0.27212,-2.01147 -0.8959,-4.71146 -1.38617,-6 -0.49027,-1.28854 -1.67118,-5.04279 -2.62425,-8.3428 -0.95306,-3.29999 -2.63631,-8.65833 -3.74056,-11.90743 -2.46987,-7.26728 -1.42448,-12.16489 3.40302,-15.94298 l 3.14035,-2.4577 -2.31373,-5.34594 c -2.65531,-6.13519 -3.62745,-9.56545 -5.48265,-19.34595 -0.73028,-3.85 -3.00925,-11.725 -5.06437,-17.5 -4.96006,-13.93807 -6.08775,-19.1265 -11.1443,-51.27438 -0.32652,-2.07591 -1.03536,-4.04736 -1.57522,-4.38101 -0.53985,-0.33365 -13.0488,11.48983 -27.79768,26.27438 -27.02641,27.09179 -58.326346,57.64014 -62.950886,61.43927 -10.40426,8.54728 -19.38496,16.83425 -20.47002,18.8888 -1.94139,3.67595 2.39236,11.35422 14.02511,24.84882 2.23029,2.58727 6.70817,8.30412 9.95083,12.70412 6.68254,9.06761 9.54988,11.96449 24.99408,25.25156 6.049996,5.20498 12.505866,10.76519 14.346386,12.35602 1.84051,1.59083 3.65259,2.89242 4.02684,2.89242 0.37425,0 2.46838,1.80554 4.65361,4.01232 2.18524,2.20677 6.1687,5.6627 8.85214,7.67984 l 4.87897,3.66753 2.64429,-3.23991 c 3.12027,-3.82311 4.29512,-3.20617 3.48942,1.83236 -0.71418,4.46626 -0.28749,4.84179 10.10834,8.89638 11.4117,4.4508 12.367,4.18368 15.5516,-4.34852 z m 77.30772,3.55661 c 8.31883,-3.10779 11.88016,-5.25006 23.14068,-13.91993 9.1884,-7.07447 10.79017,-9.0061 16.06021,-19.3676 4.37188,-8.59562 4.43498,-8.8611 4.07216,-17.13204 -0.20269,-4.62062 -0.66087,-8.87414 -1.01817,-9.45227 -0.3573,-0.57812 -1.06358,-2.9937 -1.56952,-5.36795 -2.27614,-10.68155 -8.4212,-33.52667 -9.23797,-34.34344 -1.12973,-1.12973 -16.0207,-3.61679 -21.30671,-3.55861 -14.38865,0.15838 -17.42002,0.753 -23.83342,4.67502 -3.39162,2.07411 -8.01293,5.26489 -10.26957,7.09065 -2.25665,1.82576 -4.77019,3.31956 -5.58566,3.31956 -1.38281,0 -18.88427,13.97309 -21.60002,17.24536 -0.97143,1.17052 -0.93957,2.17909 0.15371,4.86561 0.75854,1.86397 1.92304,6.53903 2.58778,10.38903 0.66473,3.85 1.84729,8.69661 2.6279,10.77024 0.7806,2.07363 1.41928,4.89612 1.41928,6.27219 0,1.37608 1.79467,6.07138 3.98815,10.43399 3.42741,6.81678 5.23639,9.00487 12.86619,15.56246 4.88293,4.19674 11.30076,9.35926 14.26185,11.47227 2.9611,2.11302 5.38381,3.87329 5.38381,3.91172 0,0.0384 3.5367,-1.25138 7.85932,-2.86626 z m 251.07496,-3.96002 c 2.23614,-1.04688 5.41572,-2.11762 7.06572,-2.37942 8.4333,-1.33814 44.5688,-16.62815 47.37244,-20.04469 0.75485,-0.91986 2.19079,-1.67247 3.19099,-1.67247 1.00019,0 2.10087,-0.45682 2.44593,-1.01515 0.34507,-0.55833 2.05913,-1.68364 3.80902,-2.50068 6.94423,-3.24231 14.04559,-8.3716 22.82191,-16.48417 11.62688,-10.74754 11.81264,-10.93457 21.11391,-21.25702 6.31988,-7.01373 7.42834,-8.70896 5.99254,-9.16467 -3.0768,-0.97654 -11.20453,-9.5135 -18.52288,-19.45552 -3.89586,-5.29253 -8.34126,-10.77791 -9.87868,-12.18973 -1.53742,-1.41181 -4.04403,-4.19169 -5.57024,-6.17751 -1.52622,-1.98583 -7.49994,-9.00663 -13.27494,-15.60178 -12.96756,-14.80918 -22.49139,-26.24513 -26.77758,-32.15378 -4.71938,-6.50581 -10.22242,-14.85994 -10.22242,-15.51859 0,-0.84573 -7.79498,-11.23667 -8.97782,-11.9677 -0.5622,-0.34746 -1.02218,-1.95518 -1.02218,-3.57273 0,-1.61754 -0.37914,-2.94098 -0.84253,-2.94098 -0.46339,0 -1.69072,-1.575 -2.7274,-3.5 -3.18694,-5.91778 -4.11209,-4.45156 -4.89008,7.75 -0.39453,6.1875 -1.56089,15.975 -2.59191,21.75 -1.03103,5.775 -2.15967,13.19141 -2.5081,16.48088 -0.34842,3.28949 -1.04171,8.23949 -1.54064,11 -0.49892,2.76052 -1.55156,10.41912 -2.33919,17.01912 -1.44101,12.07506 -2.39695,16.49123 -5.23252,24.17273 -1.47228,3.98839 -2.42886,4.73938 -8.49793,6.67157 -1.1987,0.38162 -1.85043,2.17276 -2.30826,6.34373 -0.35088,3.19659 -1.06258,6.84748 -1.58155,8.11308 -0.51897,1.26561 -1.63356,5.76561 -2.47686,10 -0.84329,4.23439 -1.93692,8.59889 -2.43027,9.69889 -0.49336,1.1 -1.87541,5.6 -3.07124,10 -1.19582,4.4 -2.53853,9.19614 -2.9838,10.65806 -0.60603,1.98977 0.18771,5.63534 3.15706,14.5 2.18165,6.51307 4.78388,13.22858 5.78274,14.92337 0.99886,1.69478 2.36094,4.73228 3.02685,6.75 1.16126,3.51865 1.399,3.66857 5.81746,3.66857 2.5337,0 6.4363,-0.85654 8.67245,-1.90341 z m -28.69323,-53.84659 c 3.27601,-11.61562 8.40612,-35.42409 7.911,-36.71435 -0.45442,-1.18421 -1.60492,-1.3703 -5.36526,-0.86778 -2.63273,0.35182 -5.1174,1.13299 -5.52148,1.73591 -1.53233,2.28639 -0.37699,39.59622 1.22615,39.59622 0.38058,0 1.1679,-1.6875 1.74959,-3.75 z M 197.09502,800.45144 c 3.16732,-3.53314 15.67142,-13.28968 19.40499,-15.1411 1.925,-0.95457 5.64519,-3.31925 8.26709,-5.25484 8.23294,-6.07788 27.26248,-8.64693 42.18588,-5.69525 6.50895,1.28738 8.08398,0.55019 7.01584,-3.28379 -0.30645,-1.1 -0.81004,-4.25 -1.11908,-7 -0.69616,-6.19489 -2.82893,-10.5 -5.20173,-10.5 -0.99036,0 -6.7163,0.47173 -12.72432,1.04829 -22.16502,2.12706 -38.05856,6.91189 -45.93758,13.82977 -1.79569,1.57664 -5.90217,4.13946 -9.1255,5.69515 -8.32639,4.01861 -16.3606,9.46946 -16.3606,11.09992 0,1.61959 3.73697,12.96688 5.12363,15.55788 1.31817,2.46302 6.12533,2.261 8.47138,-0.35602 z m 286.06703,-23.42747 c 2.64767,-3.62091 11.74386,-36.59327 10.86179,-39.37242 -0.32973,-1.0389 -0.12808,-3.8433 0.44811,-6.23199 0.97531,-4.04333 2.66777,-16.41552 3.43263,-25.09311 0.18179,-2.0625 -0.0724,-3.75 -0.56487,-3.75 -0.99562,0 -0.25348,-10.54938 1.32627,-18.85242 0.56009,-2.94384 1.05955,-10.69205 1.10991,-17.21826 0.10598,-13.73592 -0.86514,-15.8961 -7.18087,-15.97321 -1.97725,-0.0241 -5.39501,-0.7456 -7.59501,-1.60323 -4.81919,-1.87868 -15.47491,-3.89169 -24.94311,-4.71209 l -6.94311,-0.6016 4.82965,4.90338 c 5.46344,5.54684 5.49441,7.47131 0.13641,8.47647 -4.08675,0.76668 -4.35574,1.79621 -1.63507,6.25816 2.35191,3.85719 2.77532,6.19659 4.13072,22.8228 0.95608,11.72795 2.41085,27.13135 3.44722,36.5 0.51904,4.69201 0.5532,9.66923 0.24194,35.25307 l -0.26465,21.75307 8.91584,-0.36963 c 7.18875,-0.29802 9.17354,-0.72206 10.2462,-2.189 z M 196.34564,765.7047 c 1.4599,-1.02946 5.03045,-3.06893 7.93455,-4.53214 l 5.28018,-2.66039 -0.5143,-4.71786 c -0.6917,-6.34519 -2.06105,-56.49537 -1.98557,-72.71786 0.0496,-10.64941 0.37828,-13.48429 1.81808,-15.67837 1.69753,-2.58685 1.68916,-2.71501 -0.24475,-3.75 -1.10128,-0.5894 -2.72104,-1.07163 -3.59946,-1.07163 -4.11363,0 -2.64569,-5.04369 3.2689,-11.23164 1.96173,-2.05241 3.28233,-4.0161 2.93466,-4.36378 -0.79534,-0.79533 -20.08659,1.98268 -28.73792,4.13837 -3.575,0.8908 -7.96315,1.85736 -9.75145,2.14792 -3.07891,0.50026 -3.24669,0.74801 -3.16163,4.66872 0.0494,2.27723 -0.30651,7.42092 -0.79091,11.43041 -1.07224,8.87495 1.30897,30.09253 4.5688,40.71001 3.91578,12.75397 5.03085,16.92459 6.67864,24.97973 0.89781,4.38886 2.94281,10.78259 4.54446,14.2083 1.60165,3.42571 2.91209,6.83633 2.91209,7.57914 0,0.74281 0.66069,2.22408 1.4682,3.2917 0.8075,1.06762 1.4825,3.32863 1.5,5.02446 0.0507,4.91808 1.57564,5.57836 5.87743,2.54492 z m 156.61208,-8.55317 c 1.67326,-1.6087 6.20792,-5.4337 10.07703,-8.5 10.55538,-8.36521 37.46526,-32.21776 37.46526,-33.20869 0,-0.47652 0.5625,-0.8672 1.25,-0.8682 0.6875,-9.9e-4 3.95,-2.43818 7.25,-5.416 l 6,-5.41421 -5,-2.16716 c -11.39831,-4.94039 -13.49965,-6.07043 -13.49268,-7.25594 0.009,-1.45852 9.04882,-10.63821 17.19966,-17.46498 13.65873,-11.43991 25.34224,-18.97299 33.76557,-21.77077 2.7651,-0.91843 5.02745,-2.0437 5.02745,-2.5006 0,-1.40794 -6.05069,-6.00853 -7.90241,-6.00853 -0.96193,0 -2.80584,-1.125 -4.09759,-2.5 -1.29175,-1.375 -2.95931,-2.5 -3.7057,-2.5 -0.74639,0 -1.61616,-0.67517 -1.93283,-1.50041 -0.55239,-1.43948 -15.66378,-13.49959 -16.91509,-13.49959 -0.33409,0 -2.93371,-1.52038 -5.77691,-3.37861 -8.8063,-5.75557 -25.55479,-15.62139 -26.51929,-15.62139 -1.38431,0 -2.06214,3.6786 -1.24625,6.7635 0.53135,2.00903 3.3652,4.51493 10.65991,9.42625 10.31308,6.94351 19.0739,15.51873 20.12234,19.69601 0.89167,3.55273 -1.96971,8.08681 -10.90154,17.27429 -4.32299,4.44672 -8.47938,9.26733 -9.23644,10.71245 -0.75705,1.44513 -2.99096,4.4275 -4.96423,6.6275 -1.97327,2.20001 -4.31552,5.57501 -5.20498,7.5 -0.88947,1.925 -3.28739,5.525 -5.32872,8 -2.04132,2.475 -5.5654,7.65 -7.83128,11.5 -2.26587,3.85 -4.92959,8.124 -5.91938,9.49776 -0.98979,1.37377 -2.54417,4.07377 -3.45419,6 -0.91002,1.92623 -3.27252,5.27148 -5.25,7.43389 -1.97748,2.16241 -3.59542,4.3219 -3.59542,4.79886 0,0.47697 -1.73462,3.43272 -3.85471,6.56835 -9.29266,13.74393 -9.43158,14.0197 -8.75821,17.38656 0.35311,1.76552 1.3487,4.28859 2.21243,5.60681 l 1.57042,2.39675 2.62275,-2.34448 c 1.4425,-1.28948 3.99177,-3.6607 5.66503,-5.26941 z M 75.777234,747.73451 c 7.16374,-7.42035 8.21894,-9.78799 8.09261,-18.15806 -0.14889,-9.86578 -0.51794,-13.40898 -2.03106,-19.5 -0.81978,-3.29999 -1.86452,-7.575 -2.32164,-9.5 -2.0238,-8.52243 -5.30162,-16.08812 -12.17821,-28.10905 -5.43521,-9.50127 -7.87531,-11.33413 -13.6927,-10.28517 -6.18861,1.1159 -6.7406,1.69026 -10.95038,11.39422 -2.34505,5.40559 -2.43572,14.39569 -0.24705,24.49761 2.19371,10.1252 6.3073,20.27969 8.56652,21.14665 0.71587,0.2747 1.85221,1.8288 2.5252,3.45354 1.49619,3.61212 5.90485,6.9022 9.24885,6.9022 3.37788,0 5.71064,-3.8663 5.71064,-9.46477 0,-7.24389 -5.19366,-21.97958 -9.00002,-25.53525 -3.23253,-3.01964 -6.35516,-3.85233 -7.49998,-1.99998 -1.5452,2.50019 -5.5,0.39804 -5.5,-2.9235 0,-1.03377 7.05766,-3.0765 10.62937,-3.0765 3.26822,0 12.56368,5.82432 14.79431,9.26976 0.79413,1.22663 2.3604,5.7518 3.48059,10.05593 3.02604,11.62698 1.67171,18.94601 -4.61041,24.9154 -3.42588,3.25533 -10.59558,4.56875 -13.91992,2.55 -4.62201,-2.8068 -12.92841,-10.09006 -13.87394,-12.16504 -0.55,-1.20698 -2.05791,-3.66234 -3.35091,-5.45637 -6.14812,-8.53043 -6.88072,-34.29525 -1.36968,-48.16968 1.6004,-4.02913 7.60026,-9.70484 11.06311,-10.46541 4.06124,-0.892 10.64666,0.18968 15.15748,2.48967 7.32769,3.73626 13.47643,13.66701 18.55983,29.97574 0.94289,3.025 2.49693,7.075 3.45342,9 2.15295,4.33293 4.95377,20.77028 4.68583,27.5 -0.12565,3.15571 0.21599,5 0.9262,5 0.6189,0 4.17714,-2.7 7.907196,-6 3.73006,-3.3 8.08853,-6.96817 9.68548,-8.15149 3.61532,-2.6789 11.66508,-10.93981 32.7685,-33.62803 l 16.48645,-17.72454 1.5756,-10.01003 c 0.86659,-5.50551 2.02636,-10.46078 2.57727,-11.01169 2.01226,-2.01226 28.44044,-5.00052 44.0652,-4.98251 3.95504,0.005 7.4731,-0.44819 7.81791,-1.0061 0.66875,-1.08205 -1.07485,-10.71641 -2.28541,-12.62816 -0.95101,-1.50188 -33.89666,-2.43795 -44.72348,-1.27071 -11.64568,1.25552 -30.41514,3.67465 -34.74154,4.4777 -2.42174,0.44952 -4.25818,0.26572 -5.20619,-0.52106 -0.83034,-0.68912 -2.02498,-0.86603 -2.75847,-0.40849 -0.71159,0.44389 -3.0938,0.89168 -5.2938,0.99509 -2.2,0.10341 -6.025,0.71397 -8.5,1.35679 -2.475,0.64282 -11.475,1.8016 -19.999996,2.57507 -15.81681,1.43505 -31.43012,3.10805 -38.37418,4.11187 -2.65024,0.38312 -4.02883,1.15141 -4.36369,2.43192 -0.26923,1.02953 -0.85059,1.64872 -1.2919,1.37597 -1.44438,-0.89268 -6.42276,1.58739 -8.69498,4.33156 -5.10879,6.16993 -8.60271,14.59543 -10.34893,24.9562 -0.95195,5.64815 -1.53451,12.17315 -1.29459,14.5 1.20771,11.71262 2.98417,19.80172 5.54095,25.23064 1.55416,3.3 2.82798,6.9 2.83072,8 0.0113,4.55425 13.84635,26.57543 19.78021,31.48413 3.68002,3.04423 7.77043,4.75136 11.80233,4.92568 1.3368,0.0578 4.45815,-2.367 8.69128,-6.75175 z M 126.86164,646.07645 c -0.31659,-0.825 -0.30914,-2.1944 0.0165,-3.04312 0.8335,-2.17207 4.62183,-0.0587 4.62183,2.5783 0,2.36867 -3.76309,2.74577 -4.63837,0.46482 z m 216.64542,91.25 c 3.26344,-5.0875 8.5344,-13.0448 11.71324,-17.6829 3.17884,-4.63809 8.25471,-12.10649 11.27971,-16.59643 3.025,-4.48994 7.075,-10.14514 9,-12.5671 1.925,-2.42196 6.124,-8.22857 9.33111,-12.90357 3.20711,-4.67499 7.62734,-10.975 9.82273,-14 12.23133,-16.85341 13.12314,-18.56836 11.38888,-21.90078 -1.93969,-3.72715 -5.0879,-6.37773 -13.01143,-10.95476 l -6.9687,-4.02547 -1.0313,3.17832 c -1.44454,4.4519 -4.14047,4.72038 -5.10456,0.50836 -0.9003,-3.93332 -0.63029,-25.61771 0.38982,-31.30567 0.88375,-4.92768 3.45345,-5.44935 4.18345,-0.84925 0.44971,2.83384 1.50048,3.66681 10.44758,8.28201 5.47116,2.82219 11.40364,6.24186 13.18328,7.59925 3.74433,2.85595 10.65089,3.3598 13.9905,1.02064 2.94201,-2.06066 13.00305,-5.3222 18.87864,-6.11998 2.75,-0.37339 6.51746,-1.29849 8.37212,-2.05578 1.85467,-0.75729 5.22967,-1.38378 7.5,-1.3922 4.6796,-0.0174 8.13429,-1.49876 5.59985,-2.40127 -2.4901,-0.88672 -19.33572,-5.78284 -21.73675,-6.31771 -1.24563,-0.27748 -2.50968,-0.90078 -2.80901,-1.38511 -0.29934,-0.48433 -1.19149,-0.8806 -1.98256,-0.8806 -1.73639,0 -11.7366,-4.66424 -21.46313,-10.01071 -8.33635,-4.58231 -10.35602,-4.51399 -19.2841,0.65238 -3.19196,1.84708 -6.13946,3.35833 -6.55,3.35833 -0.41053,0 -1.27196,0.52554 -1.9143,1.16788 -0.64233,0.64233 -2.64483,1.72861 -4.45,2.41396 -7.97416,3.02745 -19.82287,8.20679 -20.99759,9.17851 -2.5569,2.11507 -12.37962,5.23865 -16.47551,5.23915 -2.30504,2.7e-4 -4.4691,0.4505 -4.80902,1.0005 -0.96139,1.55557 -13.04712,1.17682 -18.8121,-0.58954 -6.26672,-1.92009 -9.33237,-3.26273 -12.84227,-5.62442 -1.4599,-0.98232 -3.37731,-1.78604 -4.2609,-1.78604 -0.88359,0 -3.65413,-0.96249 -6.15676,-2.13886 -5.96595,-2.80433 -6.86103,-1.87185 -6.06119,6.31443 0.33987,3.47844 0.89802,10.37443 1.24034,15.32443 0.61877,8.94755 0.60496,9.01987 -2.36974,12.41009 l -2.99214,3.4101 -1.32351,-3.6601 c -1.45823,-4.03266 -2.39732,-4.34992 -6.59069,-2.22656 -1.55707,0.78844 -4.94255,2.16573 -7.52329,3.06065 -10.04334,3.48272 -12.66556,8.61409 -6.4755,12.67177 1.83273,1.20139 4.08324,3.34303 5.00112,4.7592 3.82311,5.89855 6.61879,9.71819 8.82511,12.05742 1.28784,1.36541 3.24152,3.90473 4.34152,5.64294 4.05199,6.40292 6.04062,9.00389 11.29014,14.76657 2.95207,3.24065 5.76011,6.925 6.2401,8.18745 0.47998,1.26245 3.74161,6.48602 7.24806,11.60792 16.26931,23.7647 18.0168,26.57011 22.77491,36.56255 2.16062,4.5375 4.39908,8.25 4.97435,8.25 0.57528,0 3.71605,-4.1625 6.97949,-9.25 z m 238.60482,-15.5 c 5.82197,-6.62007 7.93101,-10.13935 6.73077,-11.2314 -1.23552,-1.12415 -34.51667,-12.5298 -43.8193,-15.01714 -4.38716,-1.17303 -8.43716,-2.47446 -9,-2.89204 -1.1692,-0.86747 -8.67478,-3.10942 -10.40968,-3.10942 -1.62225,0 1.91143,6.64388 6.37558,11.98712 1.99803,2.39148 4.29067,5.62038 5.09476,7.17533 1.36508,2.63978 9.64293,7.79597 12.63276,7.86883 0.70578,0.0172 3.53324,1.13809 6.28324,2.49086 2.75,1.35276 5.34372,2.4637 5.76383,2.46873 0.42011,0.005 3.57011,1.35313 7,2.99579 3.42989,1.64265 6.69856,2.99265 7.26371,3 0.56515,0.007 3.3031,-2.57415 6.08433,-5.73665 z m 24.75786,-21.5182 c 6.13163,-11.17858 7.49415,-14.62356 9.59499,-24.26006 1.20971,-5.54887 2.42595,-15.55946 2.74214,-22.56977 0.55503,-12.3058 0.49311,-12.81615 -2.66929,-22 -3.61932,-10.51083 -4.81551,-12.2359 -10.49425,-15.13413 -3.61361,-1.84427 -5.86799,-2.02002 -26,-2.02701 -12.12383,-0.004 -26.99332,0.52967 -33.04332,1.18638 -6.05,0.65671 -15.95,1.59477 -22,2.08457 -6.05,0.48981 -13.475,1.3535 -16.5,1.91932 -3.025,0.56583 -10.86217,1.49468 -17.41593,2.06411 -6.55377,0.56943 -12.46306,1.4894 -13.13176,2.04438 -0.77518,0.64334 -1.16243,3.60027 -1.06849,8.1588 l 0.14733,7.14976 5.48442,1.20214 c 3.01644,0.66119 8.0867,1.77294 11.26725,2.47058 6.73411,1.47709 10.30007,4.89527 11.22367,10.75858 0.89327,5.67072 4.41218,14.06614 8.66351,20.6694 2.1065,3.27185 3.83,6.23712 3.83,6.58948 0,1.07861 4.93687,2.96168 7.76466,2.96168 2.69282,0 18.02714,3.48995 21.73534,4.94677 12.4187,4.87885 30.25042,10.65893 44.29232,14.35719 5.11077,1.34603 9.54226,2.69729 9.84776,3.00279 1.18696,1.18696 2.9748,-0.55261 5.72965,-5.57496 z M 468.34172,633.71043 c 1.89945,-6.33978 1.39215,-10.6586 -2.01559,-17.15963 -2.35009,-4.48331 -3.58298,-5.8975 -4.75,-5.44853 -0.86687,0.33348 -4.50112,1.49989 -8.07612,2.592 -3.575,1.09211 -8.525,2.91468 -11,4.05014 -5.72206,2.62514 -12.85067,4.80727 -15.75,4.82122 -1.2375,0.006 -2.25,0.44499 -2.25,0.97564 0,0.53066 1.0125,1.48471 2.25,2.12014 1.2375,0.63543 5.175,3.11771 8.75,5.51621 6.08723,4.08397 7.10327,4.41697 16,5.24392 16.47003,1.53089 15.52521,1.68298 16.84171,-2.7111 z m -235.34171,-5.64146 c 2.2,-1.75851 5.35,-3.89597 7,-4.7499 1.65,-0.85393 4.05855,-2.68587 5.35233,-4.07099 l 2.35234,-2.51839 -4.35234,-0.59715 c -5.72417,-0.78537 -28.24664,-2.29875 -28.72556,-1.9302 -0.20527,0.15798 1.54449,2.44428 3.88837,5.08067 2.34387,2.63639 5.12509,6.71658 6.18047,9.06707 2.09694,4.67018 2.11067,4.66971 8.30439,-0.28111 z m 109.10078,-27.37586 c 1.59457,-0.48582 4.92422,-1.46689 7.39922,-2.18012 2.475,-0.71323 5.07156,-1.72834 5.77013,-2.25581 0.69857,-0.52746 4.1363,-1.96055 7.63939,-3.18462 3.5031,-1.22407 7.93221,-3.4177 9.84246,-4.87472 1.91025,-1.45703 5.67252,-3.38681 8.3606,-4.28842 2.68808,-0.9016 5.77505,-2.24536 6.85993,-2.98612 1.08487,-0.74077 2.61645,-1.34685 3.4035,-1.34685 1.91652,0 12.02497,-4.80706 15.00885,-7.13744 1.31167,-1.0244 2.95118,-1.86256 3.64336,-1.86256 0.69218,0 3.89399,-1.56278 7.11514,-3.47286 3.22115,-1.91007 8.69832,-4.90584 12.17148,-6.65728 3.75734,-1.89476 9.26836,-6.05697 13.6075,-10.27715 4.01097,-3.90099 9.65143,-9.34271 12.53437,-12.09271 9.23791,-8.81194 10.9041,-12.01401 12.06199,-23.18053 0.56001,-5.40071 1.4565,-12.51946 1.99219,-15.81947 0.5357,-3.29999 0.9774,-8.56093 0.98156,-11.69098 0.004,-3.13004 0.40407,-5.93605 0.88871,-6.23557 0.48464,-0.29953 1.20547,-4.00551 1.60186,-8.23552 0.39638,-4.23001 1.08768,-8.62401 1.53621,-9.76442 0.44853,-1.14043 1.57329,-5.4485 2.49946,-9.5735 0.92617,-4.125 2.29635,-8.85 3.04485,-10.5 1.6175,-3.56567 7.23251,-19.73187 8.33845,-24.00728 0.42785,-1.65401 1.25013,-3.90401 1.82729,-5 2.83731,-5.38791 6.27072,-13.53171 6.27072,-14.8737 0,-0.82879 -1.575,-5.41367 -3.5,-10.18863 -1.925,-4.77496 -3.5,-9.69361 -3.5,-10.93034 0,-6.97803 -6.71532,-18.16186 -16.14157,-26.88253 -3.49714,-3.23536 -12.45795,-11.89786 -19.91293,-19.25 -10.38229,-10.23908 -14.16171,-13.36753 -16.14903,-13.36753 -2.03607,0 -3.06883,-0.90995 -4.79802,-4.22748 -2.88889,-5.54246 -6.15842,-9.35071 -11.58586,-13.49487 -7.51534,-5.73839 -7.88252,-2.25258 -0.83698,7.9458 2.00491,2.9021 4.71638,7.68554 6.02549,10.62984 1.30911,2.9443 4.0719,7.64017 6.13955,10.43527 4.3862,5.92937 7.24576,10.4606 10.54625,16.71145 1.30682,2.475 3.35252,6.20234 4.54601,8.28298 2.03508,3.54783 2.06949,3.93634 0.55352,6.25 -1.9961,3.04645 -2.27289,3.04572 -10.89076,-0.0286 -11.98388,-4.27508 -33.95747,-16.85991 -48.99567,-28.06106 -3.3,-2.45799 -6.9,-4.8725 -8,-5.36558 -1.1,-0.49307 -4.475,-3.09774 -7.5,-5.78816 -3.025,-2.69042 -6.96297,-5.91218 -8.75105,-7.15948 l -3.25106,-2.26781 -12.24894,3.66821 c -6.73692,2.01752 -15.14759,4.30963 -18.69036,5.09359 -3.54278,0.78396 -6.69278,1.68276 -7,1.99734 -0.64037,0.65571 10.67446,11.05773 12.94141,11.89738 1.39989,0.5185 6.53505,6.54836 11.75,13.7972 2.53537,3.5242 3.0213,9.79896 0.89548,11.56323 -0.95112,0.78935 -2.81245,0.84177 -6.25,0.17595 -9.27338,-1.79613 -15.71767,-4.49738 -39.39548,-16.5133 -2.475,-1.25601 -6.65436,-3.08433 -9.28746,-4.06295 -2.63311,-0.97861 -5.92558,-3.13187 -7.31661,-4.78502 l -2.52915,-3.00572 -6.68339,1.57979 c -10.29874,2.43438 -15.16004,3.70698 -21.68339,5.67636 -3.3,0.99624 -8.025,2.36266 -10.5,3.03649 -2.475,0.67382 -7.875,2.48856 -12,4.03274 -4.125,1.54419 -9.74252,3.13968 -12.48339,3.54555 -2.74086,0.40586 -6.37715,1.32029 -8.08064,2.03205 -1.70349,0.71176 -5.15031,1.54057 -7.65961,1.84178 -2.50929,0.30122 -5.173,0.79463 -5.91935,1.09648 -0.74636,0.30184 -3.60701,4.1605 -6.35701,8.5748 -2.75,4.41429 -5.72629,8.42975 -6.61397,8.92325 -2.26126,1.25711 -16.70261,20.4861 -19.69305,26.22175 l -2.47615,4.74925 2.22008,5.75075 c 1.22104,3.16291 3.3039,8.61313 4.62856,12.11163 1.32467,3.49849 3.31434,7.82661 4.42151,9.61804 1.10716,1.79142 2.01302,4.24121 2.01302,5.44396 0,1.20275 0.8548,4.07464 1.89955,6.38196 8.40146,18.55452 10.09851,22.94016 10.96763,28.34353 0.54393,3.38162 1.43537,6.98162 1.98098,8 2.13294,3.98115 5.22997,13.15792 6.53089,19.35162 1.78913,8.518 3.75412,15.26692 4.78953,16.45 0.45728,0.5225 0.83142,1.59667 0.83142,2.38704 0,0.79037 2.51266,5.76287 5.5837,11.04999 4.67494,8.04845 6.39468,10.10122 10.56668,12.61297 2.74064,1.64999 6.64048,4.28348 8.6663,5.85217 5.08207,3.9353 17.06161,11.64783 18.09206,11.64783 0.4655,0 1.37966,0.64257 2.03147,1.42796 0.6518,0.78536 3.49894,2.63783 6.32698,4.11657 2.82803,1.47874 6.90153,3.87365 9.05222,5.32204 6.09212,4.10277 16.86399,10.13344 18.10013,10.13344 0.6139,0 2.68315,1.04018 4.59833,2.31151 1.91517,1.27133 5.64624,3.11873 8.29127,4.1053 2.64503,0.98658 5.57142,2.61199 6.50309,3.61202 2.07067,2.2226 12.76625,7.94348 15.03932,8.04426 0.90665,0.0402 2.99845,0.90731 4.64845,1.92691 3.32288,2.05335 15.85053,2.71631 21.10078,1.11666 z m -11.1352,-61.09008 c -7.19078,-1.29236 -12.39398,-2.9686 -18.36064,-5.915 -4.57941,-2.26137 -8.72642,-4.11158 -9.21557,-4.11158 -0.48915,0 -0.88937,1.47487 -0.88937,3.27749 0,3.29087 -2.31475,7.72251 -4.03365,7.72251 -0.50613,0 -1.65951,-1.12825 -2.56305,-2.50724 -1.5239,-2.32576 -1.52361,-2.98177 0.004,-9.06298 1.64733,-6.55804 6.42255,-16.21371 9.1296,-18.46035 2.50892,-2.08223 4.73564,-0.3474 4.22376,3.29071 -0.25071,1.78192 -0.77637,3.97217 -1.16814,4.86721 -0.53495,1.22216 0.49312,2.36907 4.12892,4.60619 2.66267,1.63836 6.62714,3.58741 8.80992,4.33122 2.18279,0.74381 4.52679,1.75997 5.20889,2.25812 1.95563,1.42822 15.25288,3.72618 20.75981,3.5876 2.75,-0.0692 10.8233,-0.98047 17.94067,-2.02503 13.60167,-1.9962 16.56914,-1.82904 16.54402,0.93194 -0.041,4.50258 -3.23275,5.67717 -20.98469,7.72245 -15.34728,1.76823 -16.9998,1.73951 -29.53442,-0.51326 z m 101.7774,-31.1836 c -1.70749,-1.70749 -1.56203,-4.78332 0.25926,-5.48221 0.82623,-0.31706 2.6546,-0.28724 4.06305,0.0663 2.07675,0.52123 2.50165,1.15597 2.24777,3.35785 -0.23627,2.04917 -0.92797,2.78698 -2.82008,3.0081 -1.37887,0.16113 -3.06637,-0.26637 -3.75,-0.95 z M 258.19615,507.227 c -0.79024,-2.05933 0.30886,-5.65055 1.72936,-5.65055 2.24322,0 4.7923,2.63054 4.42469,4.5661 -0.45336,2.38707 -5.32477,3.2455 -6.15405,1.08445 z m 94.20025,-8.16113 c -6.5975,-1.80911 -8.26991,-2.91093 -10.38788,-6.84375 -2.46664,-4.58028 -1.16761,-6.17435 5.75894,-7.0669 2.8779,-0.37084 6.58255,-1.07809 8.23255,-1.57167 1.65,-0.49357 5.7,-1.67202 9,-2.61876 3.3,-0.94674 7.8,-2.53654 10,-3.53288 5.80118,-2.62726 8.32334,-2.4075 9.12718,0.79526 0.86287,3.43792 -1.7511,8.39538 -7.62718,14.46514 -3.40743,3.51976 -5.87273,5.04115 -10.15391,6.26625 -6.44074,1.84306 -7.58759,1.85188 -13.9497,0.10731 z m 16.79785,-9.97267 2.80576,-2.48326 -3.5,0.63906 c -1.925,0.35149 -5.06834,1.46895 -6.98519,2.48326 l -3.48519,1.84419 4.17943,0 c 3.03062,0 4.95065,-0.68257 6.98519,-2.48325 z m 46.50576,2.28325 c -1.75688,-1.75688 -1.51814,-7.74069 0.33725,-8.45267 2.04245,-0.78376 5.46275,2.41421 5.46275,5.10766 0,2.3103 -1.72089,4.54501 -3.5,4.54501 -0.605,0 -1.64,-0.53999 -2.3,-1.2 z m 26,-3 c -1.62396,-1.62396 -1.51267,-4.29562 0.23953,-5.74981 1.94643,-1.61539 6.61303,-0.94273 7.91757,1.14127 2.25687,3.60534 -5.03857,7.72707 -8.1571,4.60854 z m -204.0119,-5.69027 c -1.23011,-3.52869 0.0113,-5.10973 4.0119,-5.10973 2.4,0 2.8,0.4 2.8,2.8 0,5.49527 -5.09874,7.22411 -6.8119,2.30973 z m 40.44929,-0.72855 c -2.26529,-3.10856 -0.9869,-4.9367 2.78939,-3.98891 2.75837,0.6923 3.43279,3.34816 1.37322,5.40773 -1.64424,1.64424 -2.02506,1.51443 -4.16261,-1.41882 z m 137.87277,-18.54692 c -5.70881,-1.0995 -16.12041,-5.82354 -20.07134,-9.10696 -7.09747,-5.89836 -11.43882,-10.07706 -11.43882,-11.01027 0,-0.56554 -1.05499,-2.42072 -2.34442,-4.12264 -1.28943,-1.7019 -2.58704,-3.76938 -2.88358,-4.59438 -0.89287,-2.4841 -1.55813,0.48988 -2.29286,10.25 -0.57838,7.6833 -0.88923,8.74999 -2.54986,8.74999 -1.2509,0 -2.09443,-0.93104 -2.49151,-2.75 -0.33019,-1.5125 -1.0769,-4.00814 -1.65937,-5.54587 -2.41902,-6.38623 1.39835,-22.1968 8.08793,-33.49813 1.72352,-2.9117 3.13367,-5.56318 3.13367,-5.89218 0,-0.329 1.94332,-2.8967 4.31849,-5.70601 2.37517,-2.80928 5.77139,-7.24473 7.54715,-9.85651 1.77576,-2.61179 4.66994,-5.47692 6.43151,-6.36696 1.76157,-0.89005 4.14568,-2.47864 5.29803,-3.53017 5.05057,-4.60875 18.9318,-9.81946 26.21692,-9.84126 7.31842,-0.0219 13.85674,2.78605 20.23282,8.68918 7.69088,7.12039 11.44091,12.97271 14.57776,22.75011 2.33654,7.28288 2.52708,9.06695 2.00464,18.7701 -0.60972,11.3241 -1.55837,14.37945 -6.6685,21.4775 -6.06816,8.42877 -15.09306,14.6059 -27.4057,18.75792 -9.35683,3.15528 -12.11399,3.51844 -18.04296,2.37655 z m 19.27773,-9.22458 c 1.71204,-0.88531 3.70189,-1.60968 4.4219,-1.60968 0.72002,0 1.87118,-0.9 2.55814,-2 0.68696,-1.1 1.8077,-2.00811 2.49054,-2.01803 1.97277,-0.0286 7.19665,-6.9499 11.10875,-14.71831 3.0106,-5.97824 3.61769,-8.26092 3.71154,-13.95549 0.13157,-7.98301 -0.9134,-15.30817 -2.1838,-15.30817 -0.49223,0 -0.89496,1.11221 -0.89496,2.47158 0,3.81636 -3.19139,17.86053 -4.41163,19.41404 -0.59861,0.76208 -2.43837,3.8999 -4.08837,6.97293 -3.23192,6.01925 -12.4468,14.26211 -20.36462,18.21646 -3.57023,1.78305 -5.5155,2.08803 -10.67605,1.6738 -8.09709,-0.64996 -11.54544,-3.07543 -14.9599,-10.52238 -4.30311,-9.38512 -6.99583,-30.35535 -5.06903,-39.47642 0.47411,-2.24431 0.41318,-3.75 -0.15174,-3.75 -1.32799,0 -6.76095,6.95198 -9.48736,12.13997 -3.13008,5.95612 -3.17242,18.42636 -0.0827,24.36687 2.17827,4.18813 11.06517,13.20566 15.31785,15.54299 8.23737,4.52739 26.23696,5.93381 32.76147,2.55984 z m -5.22563,-11.06047 c 3.26576,-2.44795 6.87723,-5.93544 8.02549,-7.75 1.14827,-1.81456 2.94034,-4.6492 3.98239,-6.2992 1.04205,-1.65 2.42139,-4.8 3.0652,-7 3.76023,-12.84922 4.33998,-15.32573 4.33083,-18.5 -0.0146,-5.05224 -3.03067,-10.95383 -8.07235,-15.79509 -4.77108,-4.58144 -8.73039,-5.98069 -16.17106,-5.71501 -3.94768,0.14096 -5.40074,0.76441 -8.36778,3.59034 -3.98565,3.79608 -8.1851,12.27589 -11.36167,22.94222 -2.71667,9.12206 -2.02443,21.61969 1.66296,30.02312 2.88261,6.56935 6.10886,8.89108 12.40599,8.92781 3.86484,0.0225 5.46994,-0.65377 10.5,-4.42419 z m -13.47212,-9.30523 c -2.46871,-2.4687 -2.82147,-3.6936 -3.38393,-11.75 -0.942,-13.49298 1.74549,-22.38118 9.17116,-30.33128 3.67229,-3.93164 4.35849,-4.27096 7.33691,-3.62795 4.91986,1.06212 10.57194,4.2006 11.16286,6.19849 0.2874,0.97172 0.81813,4.92633 1.17938,8.78802 0.98767,10.55794 -2.02741,19.40745 -9.78805,28.72875 -3.64035,4.37242 -4.31112,4.75 -8.43851,4.75 -3.56046,0 -5.05135,-0.56754 -7.23982,-2.75602 z m -167.09014,16.81606 c -7.55676,-1.12971 -15.94272,-5.8501 -23.06677,-12.9841 -16.7979,-16.82135 -24.65422,-32.92539 -19.58989,-40.15573 0.91116,-1.30087 1.65666,-2.94399 1.65666,-3.65138 0,-0.70738 1.35,-3.14977 3,-5.42753 1.65,-2.27776 3,-4.57881 3,-5.11346 0,-1.34129 10.91257,-11.83289 17.66466,-16.98321 13.33511,-10.17168 14.41468,-10.55878 31.84556,-11.41893 l 10.01021,-0.49396 8.22814,4.16155 c 16.45535,8.32265 24.29035,23.37239 25.70823,49.38123 0.53033,9.72792 0.37463,11.08008 -1.92852,16.74817 -2.43983,6.00445 -5.38629,9.29702 -13.89766,15.53019 -4.34605,3.18275 -13.34994,7.41147 -18.13062,8.51512 -2.2,0.50789 -5.8,1.33326 -8,1.83416 -4.51398,1.02776 -9.88629,1.04661 -16.5,0.0579 z m 18.5,-6.47719 c 4.4,-0.91012 9.9076,-2.53858 12.2391,-3.6188 2.33151,-1.08023 4.87239,-1.96405 5.64641,-1.96405 1.75556,0 6.66094,-5.51675 10.05486,-11.30803 2.34106,-3.99472 4.76284,-13.18332 4.79474,-18.19197 0.0204,-3.21097 -2.31239,-13.5 -3.06087,-13.5 -0.37617,0 -1.86826,3.4875 -3.31574,7.75 -5.97831,17.60479 -7.257,19.84908 -15.86858,27.8517 -10.42441,9.68725 -15.9536,11.69526 -25.54996,9.27886 -5.85575,-1.47449 -13.98543,-10.15858 -18.99042,-20.28547 -3.05641,-6.18423 -3.90605,-9.3769 -5.12402,-19.2543 -0.80304,-6.51243 -1.28274,-13.07829 -1.06599,-14.59079 0.52735,-3.67996 -1.47836,-3.56339 -4.43347,0.25767 -1.27933,1.65422 -3.78856,4.8468 -5.57606,7.09462 -2.54438,3.19961 -3.25,5.03319 -3.25,8.44527 0,2.39708 0.40479,5.39201 0.89953,6.65539 0.49475,1.26338 1.38831,4.12778 1.98571,6.36535 1.83085,6.85756 14.28243,20.85585 23.49704,26.41582 8.61802,5.19998 12.66625,5.58793 27.11772,2.59873 z m -0.43783,-14.4801 c 5.55808,-2.47335 6.89549,-3.9203 10.72438,-11.60275 4.93907,-9.90996 6.01418,-14.35125 6.53591,-27 0.47596,-11.53888 0.39535,-12.17262 -2.0978,-16.49214 -1.42603,-2.47068 -3.52666,-5.49929 -4.66806,-6.73025 -2.48747,-2.68262 -11.28457,-4.61226 -17.0566,-3.74135 -8.53067,1.28714 -10.1408,2.30846 -16.08033,10.19984 -5.58805,7.4244 -7.0144,11.01684 -7.92026,19.94828 -0.17764,1.7514 -0.62475,4.13516 -0.99357,5.29722 -1.23887,3.90332 1.64168,15.77862 5.41203,22.31158 6.08066,10.53607 14.4197,13.02702 26.1443,7.80957 z m -11.67361,-10.97092 c -6.01608,-3.73927 -10.53531,-12.20624 -10.99463,-20.59893 -0.52158,-9.53012 1.21596,-16.98526 5.2757,-22.63613 5.33467,-7.42547 8.5337,-8.39743 17.33037,-5.2655 2.475,0.88119 5.35616,1.66215 6.40258,1.73546 2.48867,0.17433 5.43924,5.95256 7.06292,13.83164 1.1562,5.61056 1.09793,6.65429 -0.59148,10.59553 -1.03071,2.40455 -1.87402,5.17181 -1.87402,6.14946 0,0.97765 -1.11987,3.42776 -2.48859,5.44469 -1.36872,2.01693 -3.19028,5.02406 -4.0479,6.68251 -2.59384,5.01594 -11.08677,7.16164 -16.07495,4.06127 z m 222.61144,180.2693 c 0,-0.32938 -0.62806,-2.01688 -1.39569,-3.75 -1.6854,-3.80522 -3.40412,-14.52355 -4.2581,-26.55446 l -0.62982,-8.87296 4.06104,-0.68611 c 5.19925,-0.87841 6.46343,-0.17452 19.68843,10.9624 14.25018,12.00024 16.17067,13.34119 20.18589,14.09446 3.62635,0.6803 7.34825,-1.48316 7.34825,-4.27139 0,-0.75184 1.35,-4.34434 3,-7.98334 1.65,-3.639 3,-7.33291 3,-8.20871 0,-0.8758 0.95689,-4.07605 2.12642,-7.11168 1.16953,-3.03563 2.79718,-7.31933 3.61701,-9.51933 0.81983,-2.2 2.5426,-6.25 3.82837,-9 1.28577,-2.75 2.87384,-7.25 3.52903,-10 0.6552,-2.75 1.82373,-6.25999 2.59674,-7.79998 1.60545,-3.19836 1.08175,-5.56527 -2.39325,-10.81634 -1.32579,-2.00342 -4.22049,-8.05638 -6.43266,-13.45104 -2.21217,-5.39466 -4.88827,-10.9096 -5.94689,-12.25542 -1.05863,-1.34582 -1.92477,-2.91026 -1.92477,-3.47654 0,-0.56629 -1.575,-4.34776 -3.5,-8.4033 -1.925,-4.05553 -3.5,-7.75142 -3.5,-8.21309 0,-0.46167 -0.6294,-1.36176 -1.39867,-2.0002 -1.13791,-0.94437 -2.67052,0.66415 -8.22037,8.62756 -7.53507,10.81197 -26.46154,30.26849 -32.38199,33.28888 -3.72608,1.9009 -4.99331,3.63048 -5.00513,6.83126 -0.003,0.91751 -0.58344,2.79321 -1.289,4.16821 -0.70556,1.375 -1.368,4.63624 -1.47208,7.24719 -0.5008,12.5626 -16.2803,31.29165 -33.73276,40.03819 -2.75,1.3782 -6.26068,3.6778 -7.80152,5.11022 -1.54084,1.43242 -3.27798,2.6044 -3.86031,2.6044 -2.30244,0 -10.9014,6.43315 -10.61145,7.93875 0.34911,1.81277 5.75476,4.6036 10.77328,5.56204 1.925,0.36764 4.175,1.22684 5,1.90933 2.10875,1.7445 16.42691,7.10554 23,8.61173 3.025,0.69316 8.65,2.31075 12.5,3.59465 6.81212,2.27171 11.5,2.9992 11.5,1.78463 z M 199.50699,582.07501 c 11.43047,-2.07757 33.2992,-11.4944 38.46524,-16.56339 1.77543,-1.74207 1.7995,-1.93517 0.24117,-1.93517 -2.00729,0 -18.07585,-11.25764 -28.11539,-19.69764 -7.77724,-6.53814 -9.89434,-10.35131 -14.14923,-25.48455 -1.42495,-5.06809 -3.04748,-10.06799 -3.60561,-11.11087 -0.55814,-1.04288 -3.56368,-3.02066 -6.67898,-4.39505 -10.41326,-4.59408 -14.14772,-6.77963 -19.75583,-11.56188 -3.06365,-2.6125 -5.98385,-4.75 -6.48932,-4.75 -0.50546,0 -1.71847,-0.7875 -2.69556,-1.75 -0.9771,-0.9625 -3.21758,-2.95044 -4.97887,-4.41765 -4.14507,-3.453 -12.6046,-13.11724 -16.42233,-18.76102 -2.6065,-3.85321 -2.91676,-5.02267 -2.38775,-9 0.33442,-2.51423 2.01035,-7.72133 3.7243,-11.57133 1.71396,-3.85 4.12502,-9.25 5.35793,-12 1.23291,-2.75 2.58291,-6.125 3.00001,-7.5 0.4171,-1.375 1.59646,-3.57319 2.6208,-4.88486 1.02434,-1.31167 1.86244,-2.8042 1.86244,-3.31672 0,-0.51253 1.09412,-2.36633 2.43139,-4.11958 1.33726,-1.75324 2.89972,-4.41952 3.47213,-5.92507 1.45777,-3.83423 14.41526,-22.97282 20.78385,-30.69834 2.92195,-3.54451 5.31263,-6.88408 5.31263,-7.42126 0,-0.53718 0.71908,-1.77127 1.59796,-2.74242 2.76331,-3.05342 0.74126,-3.735 -5.23325,-1.764 -3.12134,1.02974 -7.03586,1.87225 -8.69894,1.87225 -2.90217,0 -7.34473,1.13851 -12.66577,3.24591 -3.97561,1.57454 -23.43791,5.59942 -35.48815,7.33909 -3.48054,0.50248 -4.77899,0.83083 -13.51185,3.41687 -3.575,1.05865 -12.799996,2.62693 -20.499996,3.48507 -7.7,0.85814 -17.375,2.0026 -21.5,2.54326 -4.125,0.54066 -9.83321,0.98004 -12.6849,0.97641 -6.66446,-0.009 -10.3151,1.37517 -10.3151,3.90962 0,1.08116 -0.4892,2.26808 -1.08712,2.63761 -0.59791,0.36953 -0.86165,1.53405 -0.58608,2.58783 0.27556,1.05377 -0.19431,5.61548 -1.04417,10.13714 -0.84986,4.52165 -1.71335,11.37119 -1.91887,15.22119 -0.39282,7.35865 1.41435,27.28992 2.62943,29 0.3908,0.55 1.51501,3.475 2.49825,6.49999 1.7117,5.26617 4.66324,13.25607 6.46465,17.5 0.46691,1.1 1.87818,4.66908 3.13614,7.93128 2.08633,5.41035 7.10504,12.56872 8.81189,12.56872 0.67576,0 0.60729,-2.58686 -0.56658,-21.40479 -0.5301,-8.49787 0.50929,-15.07076 2.88591,-18.24987 0.47475,-0.63506 1.74334,-4.23506 2.81908,-8 1.07574,-3.76494 2.77399,-7.97034 3.7739,-9.34534 0.99991,-1.375 3.23424,-5.425 4.96518,-9 3.05529,-6.31023 13.66011,-18.53025 20.61081,-23.75 3.27914,-2.46252 6.620226,-2.96985 6.585616,-1 -0.026,1.47848 -3.056956,7.64384 -6.513886,13.25 -4.33421,7.02886 -8.46303,16.369 -8.49977,19.22804 -0.0196,1.52458 -0.64169,5.30648 -1.38243,8.40423 -0.87646,3.66528 -1.23339,10.03902 -1.02205,18.25059 0.47387,18.41153 3.25808,27.63812 10.87806,36.04879 1.95912,2.16241 3.56204,4.30885 3.56204,4.76987 0,0.46103 1.055686,2.51678 2.345976,4.56835 1.29029,2.05157 3.91444,6.65513 5.83143,10.23013 4.78922,8.93139 7.85706,14.2799 8.99472,15.68146 2.01185,2.47856 10.82787,21.42139 10.82787,23.26568 0,4.94393 2.764,3.46668 18.10791,-9.6779 5.28435,-4.52691 10.63528,-9.73009 11.89094,-11.56261 1.25566,-1.83252 3.62874,-4.10419 5.27349,-5.04814 2.72766,-1.56547 3.19964,-1.57925 5.37046,-0.15688 3.22787,2.11498 2.70682,4.00749 -5.71942,20.7732 l -6.92305,13.77482 2.7006,1.02676 c 2.97222,1.13004 10.58809,-0.22524 15.63976,-2.78316 2.64863,-1.34113 7.38322,-1.21379 12.90931,0.34721 1.94463,0.54931 2.48445,5.78761 0.70948,6.8846 -0.57229,0.35369 -2.14566,2.29275 -3.49639,4.30902 -1.35073,2.01627 -3.52991,5.24095 -4.84263,7.16594 -1.31271,1.925 -2.16276,3.87799 -1.88898,4.33998 0.58988,0.99541 11.73816,0.0738 22.2755,-1.84142 z m 380.80215,-27.25642 c -0.56393,-2.05818 -1.45814,-4.55884 -1.98714,-5.55704 -0.529,-0.99819 -1.14115,-2.79819 -1.36033,-4 -1.50227,-8.23729 -4.99667,-21.67793 -6.28783,-24.1851 -0.84973,-1.65 -2.5996,-10.2 -3.88861,-19 -1.289,-8.8 -2.893,-19.6 -3.56443,-24 -1.84373,-12.0822 -1.36554,-55.60045 0.73621,-67 0.91264,-4.95 2.04608,-11.475 2.51876,-14.5 0.47267,-3.025 1.59666,-8.875 2.49775,-13 0.90109,-4.125 1.95067,-9.26337 2.33242,-11.4186 0.38174,-2.15524 1.3052,-4.12145 2.05213,-4.36936 1.06076,-0.35207 1.2127,0.40965 0.69406,3.47948 -0.36521,2.16163 -0.83466,7.50284 -1.04324,11.86936 -0.20857,4.36652 -1.11001,12.43912 -2.0032,17.93912 -0.89318,5.5 -1.77891,14.05 -1.96828,19 -0.18937,4.95 -0.83482,12.825 -1.43434,17.5 -1.08815,8.48524 -0.5214,21 0.95101,21 0.42783,0 2.24417,-1.9125 4.03631,-4.25 1.79214,-2.3375 4.48849,-5.6 5.99189,-7.25 1.5034,-1.65 3.67629,-4.70364 4.82865,-6.78586 1.15235,-2.08222 6.06217,-8.38222 10.91069,-14 4.84852,-5.61778 10.75983,-12.86728 13.13624,-16.11 2.37641,-3.24272 6.08419,-7.74272 8.23952,-10 4.23063,-4.43074 6.23684,-8.27783 8.39812,-16.10414 1.788,-6.47463 1.80844,-18.80172 0.037,-22.29966 -0.75214,-1.48519 -1.67823,-7.07331 -2.05796,-12.41806 -0.74136,-10.43444 -4.31711,-25.19881 -7.16539,-29.58606 -0.96274,-1.48292 -3.47364,-4.75018 -5.57977,-7.26058 -4.23173,-5.04398 -4.54012,-6.10086 -2.31827,-7.94483 1.22416,-1.01596 2.39505,-0.91647 6.16681,0.52397 7.4795,2.85645 13.18775,7.14989 23.45509,17.64168 5.29813,5.41395 10.36063,9.84354 11.25,9.84354 1.37955,0 1.61703,-1.44156 1.61703,-9.81557 0,-8.51283 -0.46981,-11.26683 -3.5398,-20.75 -5.72321,-17.67898 -16.63553,-33.45416 -29.00771,-41.93443 -3.20966,-2.2 -7.85237,-5.93115 -10.31715,-8.29145 -4.95732,-4.7472 -6.97897,-4.9038 -14.13534,-1.09492 -3.59899,1.91552 -8.40071,4.01516 -18,7.87084 -9.32193,3.74428 -12.15848,4.68803 -22.5,7.48604 -10.61286,2.87142 -20.1189,5.69203 -27.5,8.15973 -2.475,0.82746 -5.85,1.86806 -7.5,2.31245 -1.65,0.44439 -8.625,2.5062 -15.5,4.5818 -8.28215,2.50043 -14.69328,3.82121 -19,3.91426 -3.575,0.0772 -8.3,0.65855 -10.5,1.29181 -3.9252,1.12985 -6.44834,1.73661 -19.5,4.68932 -3.575,0.80878 -10.52682,1.97382 -15.44849,2.58897 -4.92167,0.61516 -9.30917,1.34138 -9.75,1.61382 -1.56522,0.96736 -0.74709,2.93416 3.05421,7.3424 l 3.85031,4.46507 8.0182,-2.71507 c 4.40998,-1.49329 10.04112,-2.71507 12.5136,-2.71507 5.08679,0 13.52174,3.10141 18.83882,6.92677 4.34537,3.12626 12.92919,12.67341 12.90801,14.35661 -0.0391,3.10715 -1.73481,3.98118 -6.37413,3.28547 -2.53581,-0.38027 -4.61056,-1.11253 -4.61056,-1.62724 0,-1.74671 -7.00631,-8.70157 -10.02597,-9.95236 -3.05648,-1.26603 -18.30179,-0.99482 -19.64611,0.34951 -0.60173,0.60173 0.6547,2.26976 4.46181,5.92348 1.8383,1.76423 8.65119,8.98806 16.20963,17.18734 3.57465,3.87773 7.84484,8.17542 9.48931,9.55042 5.39449,4.51053 12.51133,12.92111 12.51133,14.78572 0,0.53317 0.675,1.52959 1.5,2.21428 0.825,0.68469 1.5,2.08841 1.5,3.11939 0,1.03098 1.87759,5.36337 4.17242,9.62755 7.63945,14.19538 8.67842,16.47819 8.13921,17.88335 -0.29446,0.76735 -0.0907,1.95195 0.45278,2.63244 0.54349,0.6805 1.97055,4.61227 3.17125,8.73727 4.71758,16.20727 8.50242,27.65724 10.24227,30.98519 1.00214,1.91686 1.82207,4.25443 1.82207,5.1946 0,0.94017 1.55826,5.12877 3.46279,9.308 1.90453,4.17922 3.76321,9.26666 4.13039,11.3054 0.36718,2.03875 1.00696,4.15681 1.42174,4.70681 0.41477,0.55 1.06626,2.45983 1.44775,4.24405 0.3815,1.78422 1.26797,3.58423 1.96996,4 2.03333,1.20432 6.56737,9.01373 6.56737,11.3116 0,1.15247 1.79489,5.16868 3.98864,8.9249 2.19375,3.75622 4.43262,7.99724 4.97525,9.42448 0.54263,1.42723 1.39315,2.59497 1.89004,2.59497 0.49689,0 1.48833,1.4625 2.2032,3.25 0.71488,1.7875 2.51763,4.82501 4.00611,6.75 1.48848,1.925 3.16208,5.15192 3.71911,7.17094 0.55703,2.01901 2.52137,5.84401 4.36521,8.5 4.4685,6.43671 4.7711,6.94022 9.0553,15.06748 3.94359,7.48113 6.43603,10.6028 7.79498,9.76292 0.46013,-0.28437 0.37521,-2.20101 -0.18871,-4.25919 z M 483.06386,492.3126 c 9.78273,-8.44741 21.45917,-20.03729 22.90595,-22.73615 0.7371,-1.375 2.71441,-5.27449 4.39402,-8.66553 1.67962,-3.39105 3.52237,-6.45511 4.09501,-6.80903 1.4783,-0.91363 1.21464,-5.35082 -0.5957,-10.02544 -2.83348,-7.31651 -5.54966,-14.96423 -6.39292,-18 -1.44907,-5.21667 -4.07529,-11.9643 -5.04022,-12.95 -1.38255,-1.4123 -2.8932,0.55241 -3.07111,3.99417 -0.2093,4.04914 -1.69404,8.51213 -8.63491,25.95583 -7.71006,19.37684 -12.94596,36.65153 -13.68482,45.15007 -0.23191,2.66747 -0.72557,5.86244 -1.09703,7.09993 -1.01183,3.37087 0.43857,2.75707 7.12173,-3.01385 z m -297.0201,-4.35047 c -1.38502,-4.33712 -2.52396,-8.49267 -2.53098,-9.23455 -0.007,-0.74188 -0.61373,-2.76688 -1.34823,-4.5 -2.12441,-5.01273 -3.77101,-9.83886 -4.82816,-14.15113 -1.75942,-7.17696 -4.97185,-17.96332 -5.84534,-19.62689 -0.46982,-0.89479 -1.16477,-3.36979 -1.54432,-5.5 -0.37955,-2.13021 -1.46016,-5.22311 -2.40135,-6.87311 -1.60531,-2.81426 -3.23983,-7.73192 -4.4871,-13.5 -0.89079,-4.11951 -2.27687,-5.64028 -4.10148,-4.5 -2.10849,1.31769 -10.97307,17.98988 -12.41767,23.35472 -0.62348,2.31542 -2.46234,7.08061 -4.08636,10.58931 -1.62402,3.5087 -2.95276,7.08802 -2.95276,7.95402 0,2.47019 8.77531,17.74091 12.31098,21.42344 5.91586,6.1616 34.78957,24.12545 36.47001,22.68991 0.15454,-0.13202 -0.85221,-3.78859 -2.23724,-8.12571 z M 82.000014,375.50751 c 7.7,-1.08391 16.925,-2.60862 20.499996,-3.38825 3.575,-0.77964 8.75,-1.84157 11.5,-2.35985 22.90898,-4.31757 62.89885,-13.23629 70.5,-15.72323 2.475,-0.80977 7.65,-2.10288 11.5,-2.87358 15.96183,-3.19525 25.24655,-5.40473 27.06725,-6.44116 4.78194,-2.72214 27.66982,-10.3105 41.39308,-13.72367 5.20318,-1.29411 10.60318,-2.78483 12,-3.31272 2.44323,-0.92335 12.05534,-3.72396 22.53967,-6.56722 2.75,-0.74578 8.375,-2.12318 12.5,-3.06089 4.125,-0.93771 9.3,-2.26878 11.5,-2.95793 2.2,-0.68916 6.7,-1.81882 10,-2.51036 9.66738,-2.02588 32.10222,-7.56754 44.19011,-10.91546 6.15457,-1.7046 16.95457,-4.25964 24,-5.67788 7.04544,-1.41823 13.23739,-2.99266 13.75989,-3.49873 0.5225,-0.50607 2.7725,-0.93087 5,-0.94399 2.2275,-0.0131 5.625,-0.4438 7.55,-0.95707 5.00472,-1.33441 15.58521,-3.80715 22,-5.14155 3.025,-0.62926 10.675,-2.67198 17,-4.53939 16.95747,-5.00657 23.20082,-6.46081 40.5,-9.43357 2.75,-0.47257 8.375,-1.97567 12.5,-3.34022 12.28442,-4.06368 19.96018,-6.26014 30,-8.58468 5.225,-1.20975 10.85,-2.81152 12.5,-3.55948 1.65,-0.74796 7.725,-3.2111 13.5,-5.47364 5.775,-2.26254 12.525,-5.14963 15,-6.41575 2.475,-1.26612 8.325,-4.15038 13,-6.40946 18.545,-8.96143 31.06559,-18.93747 33.059,-26.34046 3.19498,-11.86524 -4.25763,-17.38095 -26.059,-19.28635 -9.59862,-0.8389 -21.45668,-2.94313 -37,-6.56571 -4.675,-1.08957 -10.10992,-1.96928 -12.07759,-1.95492 -1.96768,0.0144 -6.34624,-1.09889 -9.73013,-2.47389 -3.3839,-1.375 -7.01703,-2.5 -8.07363,-2.5 -2.08248,0 -22.9699,-7.75253 -29.86526,-11.08474 -2.33564,-1.1287 -5.03564,-1.79943 -6,-1.49051 -0.96437,0.30893 -3.22953,2.70224 -5.0337,5.31847 -7.00261,10.1545 -21.81744,24.18096 -34.62981,32.78698 -3.25057,2.18339 -8.20057,5.51664 -11,7.40722 -5.97453,4.03486 -35.19568,18.68042 -39.27864,19.68634 -1.54618,0.38094 -3.71124,1.2639 -4.81124,1.96214 -2.50575,1.59056 -29.21873,8.92379 -39.96261,10.97052 -4.42057,0.84212 -9.94301,1.96618 -12.2721,2.4979 -2.32909,0.53173 -10.20409,1.42097 -17.5,1.97609 -13.83133,1.05239 -26.06352,2.38965 -36.26529,3.96463 -5.06572,0.78206 -34.78192,2.46527 -39.5,2.23739 -0.825,-0.0399 -15.45,-0.34149 -32.5,-0.67031 -17.05,-0.32883 -37.075,-1.07191 -44.5,-1.65129 -7.425,-0.57939 -16.2,-1.18434 -19.5,-1.34435 -8.7395,-0.42374 -27.26118,1.19634 -32.67573,2.85812 -6.22858,1.91162 -18.28937,9.95656 -21.63641,14.43219 -1.47832,1.9768 -4.37536,5.27469 -6.43786,7.32864 -2.0625,2.05395 -3.75,4.09812 -3.75,4.54259 0,1.13076 -10.586856,11.88787 -16.920326,17.19244 -2.90283,2.43125 -5.72643,5.35625 -6.27466,6.5 -1.09897,2.29272 -10.05315,9.86391 -16.30501,13.78667 -2.2,1.3804 -6.08081,4.486 -8.62401,6.90134 -6.95401,6.60437 -9.59403,8.89153 -10.26332,8.89153 -0.86016,0 -14.61934,9.7643 -17.61267,12.49897 -11.56939,10.56961 -19.06252,18.12264 -19.57227,19.72872 -0.79426,2.50249 1.36126,4.79534 7.80539,8.30268 4.08089,2.22109 7.1196,2.98232 14.22801,3.56427 12.64765,1.03543 32.55162,0.15727 49.03887,-2.16358 z M 226.70001,323.37645 c -2.10922,-2.10922 -1.31061,-4.50711 3.3,-9.90857 2.475,-2.89954 4.5,-5.60596 4.5,-6.01426 0,-0.40831 1.00598,-1.06167 2.23551,-1.45191 1.22952,-0.39023 3.81702,-1.93196 5.75,-3.42605 1.93297,-1.4941 6.12764,-3.74282 9.3215,-4.99715 4.77326,-1.87463 6.90946,-2.1681 12,-1.64856 10.5704,1.07882 20.72407,5.2389 27.01354,11.06778 1.46788,1.36039 3.27835,2.83462 4.02326,3.27608 0.74491,0.44146 1.64349,1.99088 1.99686,3.44316 0.51126,2.10123 0.1408,2.96923 -1.81391,4.25 -3.48257,2.28186 -4.65362,2.0627 -10.67627,-1.9981 -2.94277,-1.98417 -7.60049,-4.50478 -10.35049,-5.60134 -10.5123,-4.1918 -26.1423,-0.12488 -36.03145,9.37535 -5.12218,4.92075 -8.79656,6.10557 -11.26855,3.63358 z m 113.7728,28.45 c -0.015,-0.4125 -5.60505,-6.55569 -12.42243,-13.65154 l -12.39523,-12.90154 -6.86341,0.5754 c -3.77488,0.31648 -7.97229,1.02853 -9.32758,1.58234 -1.35528,0.55381 -3.73362,1.27967 -5.28519,1.61301 -1.55157,0.33335 -2.64573,1.13202 -2.43146,1.77483 0.47189,1.41566 7.02882,4.96437 14.07572,7.61799 2.84723,1.07216 8.55178,3.49116 12.67678,5.37554 4.125,1.88439 10.08666,4.21879 13.24814,5.18755 3.16148,0.96877 6.00054,2.16978 6.30902,2.66891 0.67639,1.09441 2.45382,1.21031 2.41564,0.15751 z m 98.0272,0.18462 c 0,-0.31096 -2.31307,-4.69846 -5.14015,-9.75 -2.82709,-5.05154 -6.24264,-11.20962 -7.59011,-13.68462 -1.34747,-2.475 -3.5344,-5.93248 -4.85985,-7.68328 -1.32544,-1.7508 -2.40989,-3.70268 -2.40989,-4.33751 0,-1.63245 -6.7696,-13.54309 -8.52584,-15.00065 -1.15919,-0.96204 -3.05919,-0.75942 -9.21718,0.98293 -4.26634,1.20714 -9.33733,2.58783 -11.26887,3.0682 -1.93154,0.48037 -5.22707,1.59003 -7.3234,2.46595 -2.09634,0.8759 -4.66149,1.32278 -5.70034,0.99306 -1.03885,-0.32972 -2.86573,-0.0767 -4.05972,0.56234 -2.12342,1.13642 -2.07807,1.24668 2.07322,5.04134 4.60076,4.2055 13.62299,10.90763 14.68358,10.90763 0.36125,0 2.9477,1.70794 5.74768,3.79543 5.20221,3.87844 18.16854,12.20457 19.00624,12.20457 0.62507,0 19.68977,8.79874 21.58463,9.96174 1.75345,1.07621 3,1.2727 3,0.47288 z M 129.53037,250.99172 c 17.27187,-7.31022 16.66533,-7.24466 41.96964,-4.53643 21.28522,2.27808 132.51161,1.77711 136.38095,-0.61428 0.57903,-0.35786 6.69269,-0.77382 13.58592,-0.92435 6.89322,-0.15054 14.78313,-0.75572 17.53313,-1.34486 6.07547,-1.30155 15.67282,-3.27692 29,-5.96893 20.69974,-4.18119 40.58433,-9.99919 55.5,-16.23863 4.675,-1.95562 10.3,-4.0458 12.5,-4.64484 3.5294,-0.96102 8.31721,-3.96693 31.5,-19.77648 7.03909,-4.80032 21.17128,-17.69842 28.57687,-26.0814 5.00151,-5.6616 5.60287,-6.76761 4.57478,-8.41384 -0.65103,-1.04246 -0.92539,-2.92454 -0.60968,-4.1824 0.32122,-1.27988 -1.03298,-7.99025 -3.07513,-15.23792 -4.13276,-14.66736 -5.93587,-19.45091 -7.33178,-19.45091 -0.9945,0 -5.33008,5.27047 -8.55248,10.39667 -2.72402,4.33337 -18.49192,19.40327 -29.52179,28.21495 -2.44157,1.95056 -6.71657,4.69009 -9.5,6.08785 -2.78344,1.39776 -6.94445,4.49 -9.24671,6.87164 -6.06212,6.27115 -17.73328,11.5934 -38.31408,17.47189 -3.575,1.02114 -11.74573,3.63935 -18.15717,5.81827 -34.49042,11.72154 -82.44896,18.22088 -133.21623,18.05345 -10.93037,-0.036 -24.43037,-0.50094 -30,-1.0331 -5.56963,-0.53216 -12.6016,-1.14161 -15.6266,-1.35433 -3.025,-0.21272 -8.65,-0.64643 -12.5,-0.96379 -24.02188,-1.98018 -36.78874,-2.45697 -41.56013,-1.5521 -5.11185,0.96945 -22.37709,7.39049 -24.57513,9.13963 -0.6244,0.49688 -1.86013,3.78909 -2.74607,7.31604 -1.55461,6.18893 -1.30646,12.28119 0.98908,24.28293 0.58765,3.07238 2.49384,2.86757 12.42261,-1.33473 z m 1.09752,-42.80084 c 1.85466,-0.76207 8.09712,-1.95483 13.87212,-2.6506 11.45367,-1.37994 10.86538,-1.36178 19.5,-0.6019 34.31648,3.02001 84.91061,4.44655 95.5,2.6927 3.575,-0.5921 13.7,-1.30444 22.5,-1.58296 17.94508,-0.56797 34.37759,-1.98241 48.5,-4.17466 5.225,-0.81108 11.975,-1.83891 15,-2.28406 5.62852,-0.82827 11.65297,-2.22518 20.5,-4.75343 2.75,-0.78587 7.7,-2.06757 11,-2.84821 10.46522,-2.47564 31.63819,-11.54685 47,-20.13635 16.03559,-8.96625 32.45041,-21.30039 46.82404,-35.18369 8.32102,-8.03717 10.22559,-11.25943 8.83287,-14.94395 -1.58368,-4.18971 -9.32553,-36.697407 -10.75203,-45.147309 -0.41782,-2.475 -0.81153,-6.525 -0.8749,-9 -0.26777,-10.45838 -2.82531,-23.58072 -5.8136,-29.828676 -3.38228,-7.071718 -4.81833,-8.279721 -12.71638,-10.697009 -3.025,-0.925836 -8.2,-2.939534 -11.5,-4.474885 -7.54492,-3.510335 -19.50051,-6.649541 -30.5,-8.008457 -4.675,-0.577567 -11.71028,-1.507387 -15.63395,-2.066268 -3.92368,-0.558882 -13.82368,-0.949489 -22,-0.868017 -13.92112,0.138716 -15.33906,0.335264 -22.30764,3.092183 -4.90353,1.93994 -9.67843,4.849836 -14,8.531812 -6.25447,5.328801 -35.38936,32.656147 -43.24805,40.564917 -6.25337,6.29322 -15.39098,10.9951 -26.731,13.75479 -8.04235,1.95717 -10.07936,1.75587 -10.07936,-0.99609 0,-1.26849 1.08019,-1.98217 3.75,-2.47762 2.0625,-0.38275 4.425,-1.26303 5.25,-1.95617 0.825,-0.69314 3.525,-2.04386 6,-3.0016 8.90566,-3.44617 21,-11.91346 21,-14.70218 0,-0.46267 -3.2625,-0.56652 -7.25,-0.23078 -3.9875,0.33574 -14.225,0.11108 -22.75,-0.49925 -8.525,-0.61034 -21.575,-1.38486 -29,-1.72116 -7.425,-0.33631 -13.73356,-0.75471 -14.01903,-0.92977 -0.28547,-0.17507 -8.16047,-0.60393 -17.5,-0.95302 -14.33249,-0.53571 -17.29291,-0.39776 -18.98097,0.88447 -1.1,0.83555 -2.9,1.54753 -4,1.58219 -3.15259,0.0993 -8.93679,4.12948 -12.94297,9.01805 -2.0204,2.4654 -5.44725,6.37417 -7.61524,8.68616 -2.16798,2.31199 -3.94179,4.81386 -3.94179,5.55972 0,0.74585 -5.20621,6.72922 -11.56936,13.296382 -24.2357,25.012707 -23.39196,23.050207 -21.56684,50.162977 1.41495,21.01947 1.70527,23.86413 3.0901,30.27729 2.54685,11.79456 4.10907,23.2206 4.17008,30.5 0.0606,7.232 0.37406,9.5 1.31291,9.5 0.17538,0 1.83632,-0.62351 3.69099,-1.38557 z m 174.87732,-71.10471 c -1.14909,-2.14709 -1.10347,-2.74365 0.33102,-4.32875 0.91508,-1.01115 1.66378,-2.15137 1.66378,-2.53381 0,-1.63663 7.33687,-11.32297 10.01941,-13.22789 1.61157,-1.14441 4.23087,-3.71753 5.82067,-5.71803 2.77102,-3.48688 4.15992,-3.8453 4.15992,-1.07352 0,0.7119 -0.98554,2.21254 -2.19009,3.33475 -1.20455,1.12221 -3.34205,4.28705 -4.75,7.03299 -3.13222,6.10875 -11.93163,19.00454 -12.96773,19.00454 -0.41482,0 -1.35396,-1.12063 -2.08698,-2.49028 z m -26.64654,-3.01744 c -1.24847,-3.25348 2.26831,-6.41368 20.3141,-18.25434 4.32593,-2.83844 8.79268,-6.40968 14.99399,-11.98793 3.83714,-3.45162 6.33325,-4.170597 6.33325,-1.82423 0,1.38989 -9.12819,9.80588 -24.09425,22.2144 -4.07316,3.37711 -8.66643,7.31461 -10.20727,8.75 -3.11642,2.90317 -6.45624,3.40465 -7.33982,1.1021 z m 46.64134,-39.410477 c 0,-0.50502 -0.26147,-1.5996 -0.58105,-2.43241 -0.38517,-1.00374 0.44086,-2.04264 2.45034,-3.08179 5.69131,-2.94309 6.71012,-1.59806 2.54182,3.35568 -2.5562,3.03787 -4.41111,3.94555 -4.41111,2.15852 z"
       id="path3131"
       inkscape:connector-curvature="0" />
  </g>
</svg>
